<?xml version="1.0" encoding="UTF-8"?>
<svg version="1.1" xmlns="http://www.w3.org/2000/svg" width="462" height="359">
<path d="M0 0 C152.46 0 304.92 0 462 0 C462 118.47 462 236.94 462 359 C309.54 359 157.08 359 0 359 C0 240.53 0 122.06 0 0 Z " fill="#FEFEFE" transform="translate(0,0)"/>
<path d="M0 0 C4.72329357 3.41833752 9.11265428 6.86800139 13.1875 11.0625 C13.98542969 11.87847656 14.78335938 12.69445313 15.60546875 13.53515625 C16.39566406 14.34855469 17.18585938 15.16195312 18 16 C19.37671875 17.28777344 19.37671875 17.28777344 20.78125 18.6015625 C23 21 23 21 23.3125 24.3125 C23.1578125 25.6428125 23.1578125 25.6428125 23 27 C23.6267009 27.16068466 24.25340179 27.32136932 24.89909363 27.48692322 C32.86260182 29.58762988 40.63541943 32.15390358 48.42578125 34.81640625 C49.78564196 35.27844456 51.14560389 35.74018505 52.50566101 36.2016449 C56.05356943 37.40628127 59.60014384 38.61479685 63.14642334 39.82421875 C66.75373617 41.05372806 70.36225497 42.27968692 73.97070312 43.50585938 C78.03068387 44.88563586 82.09054535 46.26575396 86.14949036 47.64857483 C87.9574836 48.26447731 87.9574836 48.26447731 89.80200195 48.89282227 C90.85692337 49.25239517 91.91184479 49.61196808 92.99873352 49.98243713 C95.99569979 50.99854204 98.99785937 51.99928646 102 53 C102 92.27 102 131.54 102 172 C103.32 172.33 104.64 172.66 106 173 C108.40374932 176.26466535 109.66562096 179.58935609 110.82421875 183.44921875 C111.13037109 184.46177734 111.43652344 185.47433594 111.75195312 186.51757812 C112.06068359 187.56365234 112.36941406 188.60972656 112.6875 189.6875 C113.00783203 190.74517578 113.32816406 191.80285156 113.65820312 192.89257812 C116 200.70688966 116 200.70688966 116 203 C113.03 203.99 113.03 203.99 110 205 C110.66 205.66 111.32 206.32 112 207 C112 207.99 112 208.98 112 210 C107.34597 212.05562615 102.68575415 214.09584717 98.01757812 216.11914062 C96.31324721 216.86323864 94.61663249 217.62497314 92.921875 218.390625 C92.08140625 218.75671875 91.2409375 219.1228125 90.375 219.5 C89.66085937 219.8196875 88.94671875 220.139375 88.2109375 220.46875 C86 221 86 221 83.01953125 220.3515625 C79.95298057 219.6685616 79.95298057 219.6685616 77.61328125 221.5546875 C76.85402344 222.32039062 76.09476563 223.08609375 75.3125 223.875 C71.89030685 227.18499009 68.46391446 230.33152301 64.75 233.3125 C60.50627054 236.75045804 56.32894315 240.25286513 52.1875 243.8125 C51.600896 244.31668457 51.01429199 244.82086914 50.40991211 245.34033203 C48.6057956 246.89261422 46.80270456 248.44607839 45 250 C37.70941044 256.2844489 30.40022428 262.52158729 22.91796875 268.578125 C20.0141859 270.9882259 17.17850234 273.46209443 14.34570312 275.95458984 C8.49494763 281.09936964 2.72734568 286.00734768 -4 290 C-5.21623047 288.96552734 -5.21623047 288.96552734 -6.45703125 287.91015625 C-11.74883269 283.41675284 -17.04781569 278.93860189 -22.4375 274.5625 C-29.68215757 268.66177891 -36.73490003 262.53848779 -43.81152344 256.43847656 C-45.60258253 254.89539537 -47.39464228 253.353491 -49.1875 251.8125 C-49.77031738 251.31145752 -50.35313477 250.81041504 -50.95361328 250.29418945 C-54.48841697 247.26556647 -58.06696637 244.30125517 -61.6875 241.375 C-65.47530755 238.30576182 -69.10272582 235.11659818 -72.6875 231.8125 C-77.39456222 227.50844953 -77.39456222 227.50844953 -82.25 223.375 C-83.09304687 222.67503906 -83.09304687 222.67503906 -83.953125 221.9609375 C-86.06623331 220.77264648 -86.06623331 220.77264648 -88.9296875 221.15234375 C-94.93005192 221.35980316 -100.43459723 218.42017671 -105.875 216.1875 C-107.60363281 215.50977539 -107.60363281 215.50977539 -109.3671875 214.81835938 C-115.69582573 212.26227613 -115.69582573 212.26227613 -118 211 C-118.33 210.01 -118.66 209.02 -119 208 C-118.22914062 207.68546875 -117.45828125 207.3709375 -116.6640625 207.046875 C-115.66117187 206.61890625 -114.65828125 206.1909375 -113.625 205.75 C-112.12839844 205.12351563 -112.12839844 205.12351563 -110.6015625 204.484375 C-107.81780739 202.89604626 -107.05231297 201.96676187 -106 199 C-105.34 199 -104.68 199 -104 199 C-104 198.01 -104 197.02 -104 196 C-104.70125 196.474375 -105.4025 196.94875 -106.125 197.4375 C-109.22166596 199.12047063 -111.53050649 199.51427091 -115 200 C-117.35423137 200.60754358 -119.67044279 201.30113284 -122 202 C-121.35765328 195.79921304 -119.64125766 190.1563282 -117.6875 184.25 C-117.39166016 183.30511719 -117.09582031 182.36023438 -116.79101562 181.38671875 C-116.49259766 180.48050781 -116.19417969 179.57429687 -115.88671875 178.640625 C-115.48779419 177.41134277 -115.48779419 177.41134277 -115.08081055 176.15722656 C-114 174 -114 174 -111.96488571 172.66770458 C-109.80772349 171.1738769 -109.80772349 171.1738769 -109.49219131 168.78800678 C-109.48850414 167.92059958 -109.48481697 167.05319239 -109.48101807 166.15950012 C-109.46014885 164.66400887 -109.46014885 164.66400887 -109.43885803 163.13830566 C-109.4438884 162.04570435 -109.44891876 160.95310303 -109.45410156 159.82739258 C-109.44376389 158.67603317 -109.43342621 157.52467377 -109.42277527 156.33842468 C-109.39322098 152.5236529 -109.39184537 148.70940879 -109.390625 144.89453125 C-109.37565196 142.2532194 -109.35892668 139.61191695 -109.34051514 136.97062683 C-109.29992928 130.72335248 -109.27960847 124.47618257 -109.26654124 118.22879666 C-109.25067985 111.11631401 -109.21226798 104.00400932 -109.17194796 96.89162982 C-109.08951385 82.26115689 -109.03544373 67.63066123 -109 53 C-108.0276088 52.6770697 -107.05521759 52.3541394 -106.05335999 52.02142334 C-83.30836698 44.47910691 -83.30836698 44.47910691 -60.62109375 36.765625 C-59.74772369 36.46474976 -58.87435364 36.16387451 -57.97451782 35.85388184 C-54.57053399 34.67983468 -51.16738192 33.50345438 -47.76586914 32.32226562 C-45.17731571 31.42435454 -42.58688497 30.53205474 -39.99609375 29.640625 C-38.84348305 29.23774261 -38.84348305 29.23774261 -37.66758728 28.82672119 C-34.6550945 27.79369425 -32.20868879 27 -29 27 C-29.185625 26.030625 -29.37125 25.06125 -29.5625 24.0625 C-29.56835262 21.16545521 -29.08019479 20.10347128 -27.27734375 17.77734375 C-24.92316847 15.42316847 -22.50404303 13.19394482 -20 11 C-19.24976563 10.33226562 -18.49953125 9.66453125 -17.7265625 8.9765625 C-16.40235035 7.80987744 -15.07004182 6.65225785 -13.7265625 5.5078125 C-11.9695883 4.02203902 -11.9695883 4.02203902 -10.3984375 2.3046875 C-9 1 -9 1 -7 1 C-7 11.23 -7 21.46 -7 32 C-17.0605227 36.47134342 -17.0605227 36.47134342 -21.734375 37.9296875 C-23.21357422 38.41115234 -23.21357422 38.41115234 -24.72265625 38.90234375 C-26.75280651 39.55461138 -28.78676964 40.19512074 -30.82421875 40.82421875 C-36.97043235 42.8514193 -40.4177196 44.53312861 -44 50 C-44.66 49.67 -45.32 49.34 -46 49 C-48.60931266 49.89363605 -48.60931266 49.89363605 -51 51 C-51.33 50.67 -51.66 50.34 -52 50 C-54.31 50.66 -56.62 51.32 -59 52 C-59 54.31 -59 56.62 -59 59 C-59.66 59 -60.32 59 -61 59 C-61 103.55 -61 148.1 -61 194 C-59.35 194.66 -57.7 195.32 -56 196 C-54.35232558 197.03229222 -52.73619277 198.11601058 -51.1484375 199.23828125 C-49.76132568 200.2120874 -49.76132568 200.2120874 -48.34619141 201.20556641 C-47.36569824 201.90085449 -46.38520508 202.59614258 -45.375 203.3125 C-43.3077252 204.76494017 -41.24000996 206.21675363 -39.171875 207.66796875 C-37.62016602 208.75924072 -37.62016602 208.75924072 -36.03710938 209.87255859 C-31.5882971 212.98887291 -27.11039254 216.06166117 -22.625 219.125 C-21.88427246 219.63200439 -21.14354492 220.13900879 -20.38037109 220.66137695 C-19.66961426 221.14695068 -18.95885742 221.63252441 -18.2265625 222.1328125 C-17.54110352 222.61556641 -16.85564453 223.09832031 -16.14941406 223.59570312 C-13.99481999 225.06501522 -13.99481999 225.06501522 -11.49902344 226.23242188 C-8.86755554 227.62133866 -6.99717592 228.78539183 -5 231 C-3.7885623 235.43141054 -3.8753117 239.68142072 -4 244.25 C-4.00254243 246.60937363 -4.00266897 248.96875151 -4 251.328125 C-4.020625 252.3687207 -4.04125 253.40931641 -4.0625 254.48144531 C-4.17853431 256.99700375 -4.17853431 256.99700375 -3 259 C-1.73843318 255.21529954 -1.86203781 251.6808651 -1.87301636 247.73843384 C-1.87145637 246.88593595 -1.86989638 246.03343806 -1.86828911 245.1551069 C-1.86428856 242.28779476 -1.86746516 239.42053522 -1.87060547 236.55322266 C-1.86925099 234.50180531 -1.86747079 232.4503882 -1.86529541 230.39897156 C-1.86072605 224.81840691 -1.86250876 219.23786069 -1.8656745 213.6572957 C-1.86820133 207.82331828 -1.86585959 201.98934247 -1.86428833 196.15536499 C-1.8624673 186.35487585 -1.86487091 176.55439424 -1.86962891 166.75390625 C-1.87506836 155.41875404 -1.8733109 144.08361982 -1.8678025 132.74846804 C-1.86326588 123.02441683 -1.86262361 113.30037103 -1.86524117 103.5763191 C-1.8668013 97.76517719 -1.86700496 91.95404374 -1.86370468 86.14290237 C-1.86081812 80.67811299 -1.86281618 75.21334682 -1.86859894 69.74855995 C-1.86992244 67.7414116 -1.86953935 65.7342613 -1.86733627 63.72711372 C-1.86460866 60.98989383 -1.86802578 58.25274857 -1.87301636 55.51553345 C-1.87078564 54.71893582 -1.86855491 53.92233819 -1.86625659 53.10160124 C-1.87980735 49.27639086 -2.07017458 45.71840421 -3 42 C2.75 39 2.75 39 5 39 C4.01 36.525 4.01 36.525 3 34 C2.34 34 1.68 34 1 34 C-0.47905238 31.04189524 -0.12190903 28.0452845 -0.09765625 24.8046875 C-0.0962413 24.09724396 -0.09482635 23.38980042 -0.09336853 22.66091919 C-0.087766 20.39890331 -0.07521318 18.13698602 -0.0625 15.875 C-0.05748532 14.34244935 -0.05292236 12.80989714 -0.04882812 11.27734375 C-0.03779577 7.51819112 -0.02052952 3.75911228 0 0 Z " fill="#F4FBFC" transform="translate(227,41)"/>
<path d="M0 0 C6.24318693 1.38737487 11.9096034 2.79776368 17.875 4.875 C18.62007812 5.11863281 19.36515625 5.36226563 20.1328125 5.61328125 C20.84953125 5.86207031 21.56625 6.11085938 22.3046875 6.3671875 C22.94390137 6.58487793 23.58311523 6.80256836 24.24169922 7.02685547 C27.14145365 8.63174594 28.62840082 11.0534376 29.82496643 14.10140991 C30.03685104 14.85475616 30.24873566 15.60810242 30.46704102 16.38427734 C30.71516541 17.24911743 30.96328979 18.11395752 31.21893311 19.00500488 C31.47797424 19.93921265 31.73701538 20.87342041 32.00390625 21.8359375 C32.42352631 23.30565002 32.42352631 23.30565002 32.85162354 24.80505371 C33.45110303 26.90519805 34.04713365 29.00632935 34.64004517 31.1083374 C36.18173153 36.56786667 37.7524342 42.01895066 39.328125 47.46875 C39.79560905 49.08582352 39.79560905 49.08582352 40.27253723 50.73556519 C42.92359679 59.84924121 45.77336897 68.8837997 48.8125 77.875 C49.22636963 79.10138184 49.64023926 80.32776367 50.06665039 81.59130859 C51.80178478 86.89031584 51.80178478 86.89031584 54 92 C54.33 67.91 54.66 43.82 55 19 C61.72324251 20.3446485 67.71592972 21.73561295 74.0625 24.0625 C74.81982422 24.33126953 75.57714844 24.60003906 76.35742188 24.87695312 C81.85360863 26.85360863 81.85360863 26.85360863 83 28 C83.12198892 29.56862092 83.17513755 31.14264523 83.20100403 32.71578979 C83.21972061 33.73620865 83.23843719 34.7566275 83.25772095 35.80796814 C83.27297821 36.93723221 83.28823547 38.06649628 83.30395508 39.22998047 C83.32337662 40.41214645 83.34279816 41.59431244 83.36280823 42.81230164 C83.53180286 53.74877572 83.62989689 64.68632508 83.70387745 75.62382317 C83.75966698 83.70353094 83.85415955 91.78082927 83.99953538 99.85943115 C84.0983717 105.54444789 84.15067595 111.22880702 84.16973227 116.91464341 C84.1824541 120.30726292 84.21543916 123.69676768 84.29932594 127.08843613 C84.78534788 149.37230492 84.78534788 149.37230492 80.45297241 154.99786377 C77.6421153 157.88399001 74.44524312 159.91953958 71 162 C68.98280324 163.585622 67.06444417 165.25515626 65.125 166.9375 C61.54846982 169.86325481 57.85385335 172.45274543 54 175 C51.72474338 169.11850813 49.45020754 163.23673814 47.17626953 157.35473633 C46.40659899 155.36410442 45.63674937 153.37354173 44.86669922 151.38305664 C39.53637645 137.60434648 34.24477717 123.8115081 29 110 C29.01118614 111.64918175 29.01118614 111.64918175 29.02259827 113.3316803 C29.08707999 123.70461139 29.10417854 134.07668873 29.07515812 144.44979191 C29.06175426 149.78260582 29.06491159 155.11432832 29.10620117 160.44702148 C29.14545277 165.5958032 29.14082984 170.74286528 29.10607719 175.89166069 C29.10048806 177.85360999 29.11057838 179.81566999 29.13676643 181.77745247 C29.3269052 197.15293462 29.3269052 197.15293462 26.08222961 201.66955566 C23.79750232 203.46234392 21.61016088 204.74382919 19 206 C17.48314778 207.22747857 15.97181762 208.46191409 14.47265625 209.7109375 C13.74369141 210.31550781 13.01472656 210.92007813 12.26367188 211.54296875 C10.76854612 212.78735913 9.2737665 214.03216547 7.77929688 215.27734375 C7.05935547 215.87417969 6.33941406 216.47101563 5.59765625 217.0859375 C4.95320557 217.6226709 4.30875488 218.1594043 3.64477539 218.71240234 C2 220 2 220 0 221 C0 148.07 0 75.14 0 0 Z " fill="#1C4F9A" transform="translate(227,81)"/>
<path d="M0 0 C-0.01143854 0.67953861 -0.02287708 1.35907722 -0.03466225 2.05920792 C-0.30746171 18.63705121 -0.4796213 35.21263174 -0.54146767 51.79254532 C-0.57377435 59.81098668 -0.63942137 67.82650163 -0.78515625 75.84375 C-0.91218246 82.83653596 -0.97502658 89.82654375 -0.96262586 96.82052207 C-0.95825874 100.52122955 -0.98476911 104.21559455 -1.08833694 107.91498566 C-2.11824058 122.89001927 -2.11824058 122.89001927 2.77609825 136.39990234 C6.98137789 140.30964597 11.65950126 142.83858308 16.91408253 145.07538414 C19.61632571 146.2731961 21.9342634 147.85505124 24.31640625 149.59375 C25.02949951 150.07827637 25.74259277 150.56280273 26.47729492 151.06201172 C27.95644352 152.08205448 29.42573678 153.11645529 30.88793945 154.16064453 C34.8126056 156.9425745 38.60967635 159.36672957 42.9765625 161.3984375 C47.8947752 163.87352505 52.23879579 166.06150215 55 171 C57.06317978 181.15955508 56.0402303 191.76149795 55 202 C50.32059596 198.57936589 45.85782006 195.09733883 41.625 191.125 C37.47860141 187.3023613 33.22587284 183.73929838 28.79296875 180.2578125 C25.3090369 177.44143123 21.93690813 174.50851235 18.5625 171.5625 C13.38647396 167.04547516 8.14800243 162.6324834 2.80859375 158.30859375 C-1.11024784 155.08740407 -4.94788927 151.77475295 -8.78466797 148.45654297 C-13.35442869 144.51596136 -18.03004607 140.74123852 -22.79296875 137.03515625 C-25.81333368 134.25000558 -27.76095761 131.62209844 -28.36914349 127.49505901 C-28.36637811 126.60737237 -28.36361273 125.71968573 -28.36076355 124.80509949 C-28.36488754 123.78011353 -28.36901154 122.75512756 -28.3732605 121.69908142 C-28.36247467 120.58561844 -28.35168884 119.47215546 -28.34057617 118.32495117 C-28.34101425 117.144039 -28.34145233 115.96312683 -28.34190369 114.74642944 C-28.34017451 111.51733285 -28.32515213 108.28862868 -28.30418181 105.05961013 C-28.28539979 101.68171002 -28.28366338 98.30380181 -28.28010559 94.92585754 C-28.27078957 88.53336789 -28.24618191 82.14103256 -28.21605712 75.74861079 C-28.18249921 68.4693323 -28.16602363 61.19004636 -28.15097082 53.91070974 C-28.11963187 38.94038724 -28.06688012 23.97020907 -28 9 C-26.07652892 8.19421554 -24.15261575 7.38948632 -22.22851562 6.58520508 C-21.15718384 6.13695877 -20.08585205 5.68871246 -18.98205566 5.22688293 C-15.85217717 3.93918246 -12.71035354 2.75908779 -9.5 1.6875 C-8.5409375 1.36136719 -7.581875 1.03523438 -6.59375 0.69921875 C-4 0 -4 0 0 0 Z " fill="#1B4E9A" transform="translate(165,100)"/>
<path d="M0 0 C2.24024238 1.6023124 3.87599381 2.98950724 5.75 4.9375 C6.79838944 5.96208852 7.84921629 6.98418835 8.90234375 8.00390625 C9.42296387 8.51453613 9.94358398 9.02516602 10.47998047 9.55126953 C12.65508039 11.62435705 14.96734602 13.49817781 17.3125 15.375 C21.79799842 18.98670003 26.1620555 22.71409814 30.5 26.5 C34.88203766 30.32326173 39.29060094 34.09154701 43.8125 37.75 C47.30235888 40.57487839 50.68010514 43.47717579 54 46.5 C58.21155089 50.33410057 62.5591361 53.94921087 66.9921875 57.5234375 C69.23958186 59.37388948 71.44420609 61.24630618 73.6328125 63.1640625 C74.25381836 63.70635498 74.87482422 64.24864746 75.51464844 64.80737305 C76.72850531 65.87101115 77.93773298 66.93996238 79.14160156 68.01489258 C82.28024942 70.75872205 84.94552775 72.73202834 89 74 C89.92039062 73.20078125 90.84078125 72.4015625 91.7890625 71.578125 C99.34634623 65.01975206 106.91970991 58.48103343 114.5234375 51.9765625 C116.88665561 49.95495017 119.24563043 47.92853563 121.6015625 45.8984375 C126.8338868 41.39349578 132.07345663 36.91086652 137.4375 32.5625 C143.77230736 27.41663009 149.90457605 22.04396858 156.05957031 16.68603516 C159.25992517 13.90525375 162.47176525 11.13797019 165.6875 8.375 C166.26346924 7.87830811 166.83943848 7.38161621 167.43286133 6.86987305 C168.94694537 5.57018853 170.47295452 4.28443078 172 3 C172.99966797 2.09121094 172.99966797 2.09121094 174.01953125 1.1640625 C177.0142067 -0.59612149 178.52621058 -0.50642944 182 0 C185.73631076 1.44862148 189.29463424 3.20496568 192.875 5 C193.84953125 5.47695312 194.8240625 5.95390625 195.828125 6.4453125 C198.22411709 7.61981843 200.61423525 8.80489269 203 10 C203 10.66 203 11.32 203 12 C198.34597 14.05562615 193.68575415 16.09584717 189.01757812 18.11914062 C187.31324721 18.86323864 185.61663249 19.62497314 183.921875 20.390625 C183.08140625 20.75671875 182.2409375 21.1228125 181.375 21.5 C180.66085937 21.8196875 179.94671875 22.139375 179.2109375 22.46875 C177 23 177 23 174.01953125 22.3515625 C170.95298057 21.6685616 170.95298057 21.6685616 168.61328125 23.5546875 C167.85402344 24.32039063 167.09476563 25.08609375 166.3125 25.875 C162.89030685 29.18499009 159.46391446 32.33152301 155.75 35.3125 C151.50627054 38.75045804 147.32894315 42.25286513 143.1875 45.8125 C142.600896 46.31668457 142.01429199 46.82086914 141.40991211 47.34033203 C139.6057956 48.89261422 137.80270456 50.44607839 136 52 C128.70941044 58.2844489 121.40022428 64.52158729 113.91796875 70.578125 C111.0141859 72.9882259 108.17850234 75.46209443 105.34570312 77.95458984 C99.49494763 83.09936964 93.72734568 88.00734768 87 92 C86.18917969 91.31035156 85.37835938 90.62070312 84.54296875 89.91015625 C79.25116731 85.41675284 73.95218431 80.93860189 68.5625 76.5625 C61.31784243 70.66177891 54.26509997 64.53848779 47.18847656 58.43847656 C45.39741747 56.89539537 43.60535772 55.353491 41.8125 53.8125 C41.22968262 53.31145752 40.64686523 52.81041504 40.04638672 52.29418945 C36.51158303 49.26556647 32.93303363 46.30125517 29.3125 43.375 C25.52469245 40.30576182 21.89727418 37.11659818 18.3125 33.8125 C13.60543778 29.50844953 13.60543778 29.50844953 8.75 25.375 C8.18796875 24.90835937 7.6259375 24.44171875 7.046875 23.9609375 C4.93376669 22.77264648 4.93376669 22.77264648 2.0703125 23.15234375 C-3.93005192 23.35980316 -9.43459723 20.42017671 -14.875 18.1875 C-16.02742188 17.73568359 -17.17984375 17.28386719 -18.3671875 16.81835938 C-24.69582573 14.26227613 -24.69582573 14.26227613 -27 13 C-27.33 12.01 -27.66 11.02 -28 10 C-24.65679984 8.31065279 -21.29890644 6.65278456 -17.9375 5 C-16.99455078 4.52304688 -16.05160156 4.04609375 -15.08007812 3.5546875 C-5.56274076 -1.08791609 -5.56274076 -1.08791609 0 0 Z " fill="#1D4F98" transform="translate(136,239)"/>
<path d="M0 0 C4.72329357 3.41833752 9.11265428 6.86800139 13.1875 11.0625 C13.98542969 11.87847656 14.78335938 12.69445313 15.60546875 13.53515625 C16.39566406 14.34855469 17.18585938 15.16195312 18 16 C18.9178125 16.85851562 19.835625 17.71703125 20.78125 18.6015625 C23 21 23 21 23.3125 24.3125 C23.209375 25.199375 23.10625 26.08625 23 27 C23.6267009 27.16068466 24.25340179 27.32136932 24.89909363 27.48692322 C32.86260182 29.58762988 40.63541943 32.15390358 48.42578125 34.81640625 C49.78564196 35.27844456 51.14560389 35.74018505 52.50566101 36.2016449 C56.05356943 37.40628127 59.60014384 38.61479685 63.14642334 39.82421875 C66.75373617 41.05372806 70.36225497 42.27968692 73.97070312 43.50585938 C78.03068387 44.88563586 82.09054535 46.26575396 86.14949036 47.64857483 C87.35481918 48.05917648 88.56014801 48.46977814 89.80200195 48.89282227 C90.85692337 49.25239517 91.91184479 49.61196808 92.99873352 49.98243713 C95.99569979 50.99854204 98.99785937 51.99928646 102 53 C102 92.27 102 131.54 102 172 C103.32 172.33 104.64 172.66 106 173 C109.65360279 177.96883427 111.00355731 183.85524384 112.75 189.6875 C113.07871094 190.74517578 113.40742188 191.80285156 113.74609375 192.89257812 C114.20435547 194.40561523 114.20435547 194.40561523 114.671875 195.94921875 C114.9512793 196.87049561 115.23068359 197.79177246 115.51855469 198.7409668 C116 201 116 201 115 203 C106.42 199.04 97.84 195.08 89 191 C89 148.43 89 105.86 89 62 C86.03 61.34 83.06 60.68 80 60 C78.12909671 59.4551 76.26647559 58.8800456 74.41796875 58.26342773 C73.41822021 57.93225449 72.41847168 57.60108124 71.38842773 57.25987244 C70.33212158 56.90470047 69.27581543 56.5495285 68.1875 56.18359375 C67.06093994 55.8082399 65.93437988 55.43288605 64.77368164 55.04615784 C62.38941477 54.25062442 60.00588277 53.45288554 57.62304688 52.65307617 C54.06824446 51.46039685 50.51092411 50.27550257 46.953125 49.09179688 C35.19762412 45.16863332 23.47898422 41.15368315 11.8125 36.97265625 C10.73669678 36.58830917 9.66089355 36.2039621 8.55249023 35.80796814 C7.57223877 35.45376297 6.5919873 35.0995578 5.58203125 34.73461914 C4.71811768 34.42287247 3.8542041 34.11112579 2.96411133 33.78993225 C1 33 1 33 0 32 C-0.0883967 29.6243148 -0.11530305 27.27791326 -0.09765625 24.90234375 C-0.0962413 24.19348526 -0.09482635 23.48462677 -0.09336853 22.75428772 C-0.08775443 20.48198288 -0.07519963 18.20977525 -0.0625 15.9375 C-0.05748681 14.40039204 -0.05292359 12.86328255 -0.04882812 11.32617188 C-0.03778042 7.55074358 -0.02050641 3.77538829 0 0 Z " fill="#1F4F96" transform="translate(227,41)"/>
<path d="M0 0 C0 10.23 0 20.46 0 31 C-10.12430573 35.49969144 -10.12430573 35.49969144 -14.79736328 37.07128906 C-16.36673141 37.60269501 -16.36673141 37.60269501 -17.96780396 38.14483643 C-19.07413177 38.51469666 -20.18045959 38.88455688 -21.3203125 39.265625 C-22.496008 39.66271667 -23.67170349 40.05980835 -24.88302612 40.46893311 C-28.6290013 41.73333484 -32.37689566 42.99192549 -36.125 44.25 C-39.82273014 45.49491059 -43.52003008 46.74108499 -47.2170105 47.98822021 C-49.50647041 48.76014436 -51.79639596 49.53068986 -54.08694458 50.29937744 C-65.422894 54.11359027 -76.70098495 58.06990781 -88 62 C-88.33 104.24 -88.66 146.48 -89 190 C-113 201 -113 201 -115 201 C-114.35765328 194.79921304 -112.64125766 189.1563282 -110.6875 183.25 C-110.39166016 182.30511719 -110.09582031 181.36023438 -109.79101562 180.38671875 C-109.49259766 179.48050781 -109.19417969 178.57429687 -108.88671875 177.640625 C-108.48779419 176.41134277 -108.48779419 176.41134277 -108.08081055 175.15722656 C-107 173 -107 173 -104.96488571 171.66770458 C-102.80772349 170.1738769 -102.80772349 170.1738769 -102.49219131 167.78800678 C-102.48850414 166.92059958 -102.48481697 166.05319239 -102.48101807 165.15950012 C-102.46014885 163.66400887 -102.46014885 163.66400887 -102.43885803 162.13830566 C-102.4438884 161.04570435 -102.44891876 159.95310303 -102.45410156 158.82739258 C-102.44376389 157.67603317 -102.43342621 156.52467377 -102.42277527 155.33842468 C-102.39322098 151.5236529 -102.39184537 147.70940879 -102.390625 143.89453125 C-102.37565196 141.2532194 -102.35892668 138.61191695 -102.34051514 135.97062683 C-102.29992928 129.72335248 -102.27960847 123.47618257 -102.26654124 117.22879666 C-102.25067985 110.11631401 -102.21226798 103.00400932 -102.17194796 95.89162982 C-102.08951385 81.26115689 -102.03544373 66.63066123 -102 52 C-101.0276088 51.6770697 -100.05521759 51.3541394 -99.05335999 51.02142334 C-76.30836698 43.47910691 -76.30836698 43.47910691 -53.62109375 35.765625 C-52.74772369 35.46474976 -51.87435364 35.16387451 -50.97451782 34.85388184 C-47.57053399 33.67983468 -44.16738192 32.50345438 -40.76586914 31.32226562 C-38.17731571 30.42435454 -35.58688497 29.53205474 -32.99609375 28.640625 C-31.84348305 28.23774261 -31.84348305 28.23774261 -30.66758728 27.82672119 C-27.6550945 26.79369425 -25.20868879 26 -22 26 C-22.185625 25.030625 -22.37125 24.06125 -22.5625 23.0625 C-22.56835262 20.16545521 -22.08019479 19.10347128 -20.27734375 16.77734375 C-17.92316847 14.42316847 -15.50404303 12.19394482 -13 10 C-12.24976563 9.33226562 -11.49953125 8.66453125 -10.7265625 7.9765625 C-9.40235035 6.80987744 -8.07004182 5.65225785 -6.7265625 4.5078125 C-4.9695883 3.02203902 -4.9695883 3.02203902 -3.3984375 1.3046875 C-2 0 -2 0 0 0 Z " fill="#1C4E99" transform="translate(220,42)"/>
<path d="M0 0 C1.98 0.99 3.96 1.98 6 3 C6 41.28 6 79.56 6 119 C7.65 119.33 9.3 119.66 11 120 C14.71936645 124.87189897 16.01615553 130.8973157 17.75 136.6875 C18.07871094 137.74517578 18.40742188 138.80285156 18.74609375 139.89257812 C19.05160156 140.90126953 19.35710937 141.90996094 19.671875 142.94921875 C19.9512793 143.87049561 20.23068359 144.79177246 20.51855469 145.7409668 C21 148 21 148 20 150 C13.07 146.535 13.07 146.535 6 143 C6 142.01 6 141.02 6 140 C5.04287109 139.69255859 5.04287109 139.69255859 4.06640625 139.37890625 C2.82697266 138.97478516 2.82697266 138.97478516 1.5625 138.5625 C0.73878906 138.29566406 -0.08492188 138.02882812 -0.93359375 137.75390625 C-3 137 -3 137 -4 136 C-4.10825579 134.35549337 -4.14685268 132.70636111 -4.15821838 131.05833435 C-4.1680072 129.98836212 -4.17779602 128.91838989 -4.18788147 127.81599426 C-4.19363693 126.63204575 -4.1993924 125.44809723 -4.20532227 124.22827148 C-4.21522186 122.989422 -4.22512146 121.75057251 -4.23532104 120.47418213 C-4.26157224 117.06733026 -4.28340796 113.66050263 -4.30332303 110.25361133 C-4.32514442 106.69680391 -4.35255186 103.14003976 -4.37937927 99.58326721 C-4.42935835 92.84366558 -4.47427776 86.10403999 -4.51740164 79.36439139 C-4.56672954 71.69338528 -4.62166411 64.02242258 -4.67708123 56.35145843 C-4.7909813 40.56767903 -4.89780277 24.78385977 -5 9 C-5.99 8.67 -6.98 8.34 -8 8 C-8.33 6.02 -8.66 4.04 -9 2 C-5.47089647 -0.35273568 -4.15685632 -0.40753493 0 0 Z " fill="#1C4E98" transform="translate(322,94)"/>
<path d="M0 0 C0 10.23 0 20.46 0 31 C-10.12430573 35.49969144 -10.12430573 35.49969144 -14.79736328 37.07128906 C-16.36673141 37.60269501 -16.36673141 37.60269501 -17.96780396 38.14483643 C-19.07413177 38.51469666 -20.18045959 38.88455688 -21.3203125 39.265625 C-22.496008 39.66271667 -23.67170349 40.05980835 -24.88302612 40.46893311 C-28.6290013 41.73333484 -32.37689566 42.99192549 -36.125 44.25 C-39.82273014 45.49491059 -43.52003008 46.74108499 -47.2170105 47.98822021 C-49.50647041 48.76014436 -51.79639596 49.53068986 -54.08694458 50.29937744 C-65.422894 54.11359027 -76.70098495 58.06990781 -88 62 C-88.33 103.91 -88.66 145.82 -89 189 C-89.33 189 -89.66 189 -90 189 C-90 146.76 -90 104.52 -90 61 C-82.13269458 56.5043969 -82.13269458 56.5043969 -78.921875 55.5859375 C-78.23609375 55.38226563 -77.5503125 55.17859375 -76.84375 54.96875 C-75.80734375 54.67484375 -75.80734375 54.67484375 -74.75 54.375 C-69.13472963 52.7664036 -69.13472963 52.7664036 -64 50 C-61.3125 49.875 -61.3125 49.875 -59 50 C-59.20625 49.4225 -59.4125 48.845 -59.625 48.25 C-60 46 -60 46 -58 42 C-62.29 42.66 -66.58 43.32 -71 44 C-71 44.66 -71 45.32 -71 46 C-71.67546875 46.10957031 -72.3509375 46.21914062 -73.046875 46.33203125 C-73.93890625 46.49058594 -74.8309375 46.64914063 -75.75 46.8125 C-76.63171875 46.96332031 -77.5134375 47.11414063 -78.421875 47.26953125 C-81.21243884 48.060191 -82.72584426 49.24992953 -85 51 C-87.32914823 51.36141955 -89.66253478 51.69699525 -92 52 C-92.66 52.66 -93.32 53.32 -94 54 C-95.98 54 -97.96 54 -100 54 C-100 92.61 -100 131.22 -100 171 C-100.99 170.67 -101.98 170.34 -103 170 C-102.67 131.06 -102.34 92.12 -102 52 C-90.12 48.04 -78.24 44.08 -66 40 C-57.58373707 37.1211016 -49.16863645 34.24015978 -40.76586914 31.32226562 C-38.17731571 30.42435454 -35.58688497 29.53205474 -32.99609375 28.640625 C-31.84348305 28.23774261 -31.84348305 28.23774261 -30.66758728 27.82672119 C-27.6550945 26.79369425 -25.20868879 26 -22 26 C-22.185625 25.030625 -22.37125 24.06125 -22.5625 23.0625 C-22.56835262 20.16545521 -22.08019479 19.10347128 -20.27734375 16.77734375 C-17.92316847 14.42316847 -15.50404303 12.19394482 -13 10 C-12.24976563 9.33226562 -11.49953125 8.66453125 -10.7265625 7.9765625 C-9.40235035 6.80987744 -8.07004182 5.65225785 -6.7265625 4.5078125 C-4.9695883 3.02203902 -4.9695883 3.02203902 -3.3984375 1.3046875 C-2 0 -2 0 0 0 Z " fill="#1D4F98" transform="translate(220,42)"/>
<path d="M0 0 C8.99270073 6.74452555 8.99270073 6.74452555 13.1875 11.0625 C13.98542969 11.87847656 14.78335938 12.69445313 15.60546875 13.53515625 C16.39566406 14.34855469 17.18585938 15.16195312 18 16 C18.9178125 16.85851562 19.835625 17.71703125 20.78125 18.6015625 C23 21 23 21 23.3125 24.3125 C23.209375 25.199375 23.10625 26.08625 23 27 C26.3 27.99 29.6 28.98 33 30 C33 31.32 33 32.64 33 34 C33.99 34.495 33.99 34.495 35 35 C34 38 34 38 31.94140625 39.25390625 C28.06378322 40.23747331 24.79029606 39.67748698 20.9375 38.9375 C19.90592773 38.77217773 19.90592773 38.77217773 18.85351562 38.60351562 C11.87647711 37.33554241 6.90497543 34.8770731 0 32 C0 21.44 0 10.88 0 0 Z " fill="#1C4E98" transform="translate(227,41)"/>
<path d="M0 0 C10.125 2.25 10.125 2.25 14.0625 3.625 C14.81660156 3.88539062 15.57070312 4.14578125 16.34765625 4.4140625 C16.89292969 4.60742188 17.43820313 4.80078125 18 5 C17.67 5.66 17.34 6.32 17 7 C11.30298599 6.40656104 7.62494392 5.10935397 2 3 C2 72.96 2 142.92 2 215 C6.95841136 212.70156539 6.95841136 212.70156539 7.875 209.875 C8.24625 209.25625 8.6175 208.6375 9 208 C12.625 207.25 12.625 207.25 16 207 C13.26948941 210.63221409 10.45143052 213.45291105 6.875 216.25 C6.00617188 216.93578125 5.13734375 217.6215625 4.2421875 218.328125 C2 220 2 220 0 221 C0 148.07 0 75.14 0 0 Z " fill="#264F8A" transform="translate(227,81)"/>
<path d="M0 0 C0.33 0 0.66 0 1 0 C1.15393884 15.83768739 1.30197104 31.67541824 1.4429636 47.51322556 C1.50856608 54.86691921 1.57610437 62.22058559 1.64819336 69.57421875 C1.71101806 75.98332268 1.77021727 82.39244806 1.82505554 88.80162549 C1.85422113 92.19550827 1.88520713 95.58935248 1.92053413 98.98317719 C1.95905119 102.77098654 1.99116016 106.55879903 2.02172852 110.34667969 C2.03467453 111.47308868 2.04762054 112.59949768 2.06095886 113.76004028 C2.06799835 114.79206573 2.07503784 115.82409119 2.08229065 116.88739014 C2.09058679 117.78337292 2.09888292 118.6793557 2.10743046 119.60248947 C2.00537836 121.87997193 1.64216946 123.81928584 1 126 C0.34 126 -0.32 126 -1 126 C-0.505 126.99 -0.505 126.99 0 128 C3.6524491 128.34124652 3.6524491 128.34124652 6.75 126.625 C8.07441644 125.01022516 8.07441644 125.01022516 9 123 C16.59 126.63 24.18 130.26 32 134 C30 136 30 136 27 137 C27.66 137.99 28.32 138.98 29 140 C23.54840178 138.33423388 18.62839399 135.96763694 13.56640625 133.390625 C9.53617799 131.42908241 6.47141604 130.29044561 2 131 C-0.70642905 132.58222628 -0.70642905 132.58222628 -3.1875 134.875 C-4.59515625 136.09123047 -4.59515625 136.09123047 -6.03125 137.33203125 C-7.50078125 138.65267578 -7.50078125 138.65267578 -9 140 C-9.51949219 140.4645459 -10.03898437 140.9290918 -10.57421875 141.40771484 C-13.74205218 144.24409903 -16.8808116 147.11007497 -20 150 C-20.33 148.68 -20.66 147.36 -21 146 C-23.42797311 146 -25.62907005 146.50085685 -28 147 C-24.06379159 142.95068215 -19.90860186 139.23968834 -15.625 135.5625 C-14.67367188 134.74168945 -14.67367188 134.74168945 -13.703125 133.90429688 C-8.05584033 129.03495448 -8.05584033 129.03495448 -6.2955904 127.93308735 C-3.23018126 125.80801512 -1.30607777 124.17630736 -0.34650803 120.48852253 C-0.09731251 117.31692656 -0.06894219 114.20907941 -0.11352539 111.02783203 C-0.10274963 109.82726669 -0.09197388 108.62670135 -0.08087158 107.38975525 C-0.05821544 104.11066166 -0.06633703 100.83340079 -0.08831334 97.55435801 C-0.10397843 94.12295096 -0.08006629 90.69182127 -0.06040955 87.26046753 C-0.02920536 80.76875516 -0.03343026 74.27757199 -0.05048412 67.78582656 C-0.06817334 60.39273338 -0.04621423 52.99992275 -0.02097714 45.60687089 C0.03003255 30.40448372 0.03142253 15.20245711 0 0 Z " fill="#EBFAFD" transform="translate(310,109)"/>
<path d="M0 0 C0.33 0.66 0.66 1.32 1 2 C0.67 2.66 0.34 3.32 0 4 C-1.32 4 -2.64 4 -4 4 C-4 4.66 -4 5.32 -4 6 C-4.99 6.66 -5.98 7.32 -7 8 C-4.47785208 10.21949017 -2.72931763 11.07598102 0.5625 12 C4 13 4 13 5.359375 14.546875 C7.7322546 16.64856836 9.5679589 16.26597716 12.6875 16.25 C19.55794447 16.6321529 22.39899675 19.21077389 27 24 C29.42024823 25.98274182 30.99724098 26.99908033 34 28 C34 28.99 34 29.98 34 31 C35.11375 31.0928125 35.11375 31.0928125 36.25 31.1875 C39.87017367 32.25709677 40.77383898 34.00859613 43 37 C45.32069965 39.42416001 45.32069965 39.42416001 48 41 C50.75124253 40.86850174 50.75124253 40.86850174 53 40 C52.67 41.65 52.34 43.3 52 45 C53.32 45.66 54.64 46.32 56 47 C56.495 46.01 56.495 46.01 57 45 C56.34 44.67 55.68 44.34 55 44 C55.37125 43.195625 55.37125 43.195625 55.75 42.375 C56.1333252 38.73341059 54.06717306 36.88151397 52 34 C52 33.34 52 32.68 52 32 C50.68 31.34 49.36 30.68 48 30 C48.33 29.34 48.66 28.68 49 28 C51.39863437 30.05926033 53.79338237 32.12299112 56.1875 34.1875 C56.86103516 34.76564453 57.53457031 35.34378906 58.22851562 35.93945312 C61.96751133 39.16775674 65.56055471 42.45369816 69 46 C67.515 46.495 67.515 46.495 66 47 C66 46.01 66 45.02 66 44 C63.49642139 44.8345262 61.33214148 45.79371992 59 47 C59.33 47.598125 59.66 48.19625 60 48.8125 C61 51 61 51 61 54 C62.0828125 54.0928125 62.0828125 54.0928125 63.1875 54.1875 C66.88556786 55.25583071 68.44412779 57.17508861 71 60 C71.598125 60.556875 72.19625 61.11375 72.8125 61.6875 C74 63 74 63 74 65 C75.485 65.495 75.485 65.495 77 66 C77 66.66 77 67.32 77 68 C77.66 68.33 78.32 68.66 79 69 C74.71148027 69 72.73495737 66.47355284 69.6875 63.75 C68.42461464 62.64437649 67.16158986 61.53891221 65.8984375 60.43359375 C65.25229492 59.86366699 64.60615234 59.29374023 63.94042969 58.70654297 C60.91955048 56.0497808 57.8673286 53.43007713 54.8125 50.8125 C54.23032715 50.31218262 53.6481543 49.81186523 53.04833984 49.29638672 C49.51331635 46.26650864 45.93379393 43.30186966 42.3125 40.375 C38.52469245 37.30576182 34.89727418 34.11659818 31.3125 30.8125 C26.60543778 26.50844953 26.60543778 26.50844953 21.75 22.375 C21.18796875 21.90835937 20.6259375 21.44171875 20.046875 20.9609375 C17.93376669 19.77264648 17.93376669 19.77264648 15.0703125 20.15234375 C9.06994808 20.35980316 3.56540277 17.42017671 -1.875 15.1875 C-3.02742188 14.73568359 -4.17984375 14.28386719 -5.3671875 13.81835938 C-11.69582573 11.26227613 -11.69582573 11.26227613 -14 10 C-14.33 9.01 -14.66 8.02 -15 7 C-10.05 4.69 -5.1 2.38 0 0 Z " fill="#2C538C" transform="translate(123,242)"/>
<path d="M0 0 C1.32 1.32 2.64 2.64 4 4 C3.525625 4.5775 3.05125 5.155 2.5625 5.75 C1.0515133 7.92582084 0.45963849 9.42602448 0 12 C-0.99 12 -1.98 12 -3 12 C-3 12.99 -3 13.98 -3 15 C-3.99 15 -4.98 15 -6 15 C-6 15.66 -6 16.32 -6 17 C-7.98260426 18.68732277 -9.9832342 20.35366057 -12 22 C-12.33 22.66 -12.66 23.32 -13 24 C-14.175625 24.433125 -14.175625 24.433125 -15.375 24.875 C-18.11296012 25.77455581 -18.11296012 25.77455581 -19.4375 28.0625 C-21 30 -21 30 -24.1875 30.75 C-25.5796875 30.87375 -25.5796875 30.87375 -27 31 C-27.495 32.485 -27.495 32.485 -28 34 C-28.9075 33.7525 -29.815 33.505 -30.75 33.25 C-34.08837848 32.61740673 -34.08837848 32.61740673 -36.375 34.9375 C-37.179375 35.9584375 -37.179375 35.9584375 -38 37 C-38 34.29079521 -37.94959129 32.5057278 -37 30 C-35.22265625 28.65625 -35.22265625 28.65625 -33.0625 27.5 C-29.69361369 25.69021715 -28.65960114 24.38864166 -27 21 C-26.01 20.67 -25.02 20.34 -24 20 C-23.67 19.34 -23.34 18.68 -23 18 C-20.37418862 16.42451317 -19.12900213 16 -16 16 C-15.9175 15.21625 -15.835 14.4325 -15.75 13.625 C-15 11 -15 11 -13.1875 9.9375 C-12.465625 9.628125 -11.74375 9.31875 -11 9 C-8.33962479 6.64366767 -7.13593805 5.40781414 -6 2 C-4.02 2 -2.04 2 0 2 C0 1.34 0 0.68 0 0 Z " fill="#1C4E9A" transform="translate(261,286)"/>
<path d="M0 0 C-2.3125 2.5 -2.3125 2.5 -5 5 C-5.99 5 -6.98 5 -8 5 C-8.99 5.33 -9.98 5.66 -11 6 C-11.495 5.505 -11.495 5.505 -12 5 C-14.31 5.66 -16.62 6.32 -19 7 C-19 9.31 -19 11.62 -19 14 C-19.66 14 -20.32 14 -21 14 C-21 58.22 -21 102.44 -21 148 C-21.33 148 -21.66 148 -22 148 C-22 103.78 -22 59.56 -22 14 C-30.25 16.64 -38.5 19.28 -47 22 C-46.34 20.35 -45.68 18.7 -45 17 C-45.66 16.01 -46.32 15.02 -47 14 C-15.32641602 3.44213867 -15.32641602 3.44213867 -13.19412231 2.73788452 C-11.63198092 2.21253552 -10.0755783 1.66998853 -8.52340698 1.11587524 C-7.31287155 0.68980484 -7.31287155 0.68980484 -6.07788086 0.25512695 C-5.34476181 -0.008582 -4.61164276 -0.27229095 -3.85630798 -0.54399109 C-2 -1 -2 -1 0 0 Z " fill="#D4E5F5" transform="translate(187,86)"/>
<path d="M0 0 C-1 3 -1 3 -3.03243637 4.87270737 C-5.43450713 7.4697809 -5.49558587 8.55497774 -5.48101807 12.03668213 C-5.48651672 13.05187927 -5.49201538 14.06707642 -5.49768066 15.11303711 C-5.48329956 16.22074463 -5.46891846 17.32845215 -5.45410156 18.46972656 C-5.45468567 19.64073914 -5.45526978 20.81175171 -5.45587158 22.01824951 C-5.45308268 25.89267517 -5.42195075 29.76633357 -5.390625 33.640625 C-5.38094485 36.32533337 -5.37727446 39.0100409 -5.37347412 41.69476318 C-5.36104512 48.04130373 -5.32822484 54.38756845 -5.28807616 60.73398757 C-5.24335585 67.96002233 -5.22137081 75.18607032 -5.20129442 82.41220903 C-5.15949192 97.27495519 -5.08914158 112.13745938 -5 127 C-4.34 127 -3.68 127 -3 127 C-2.67 127.66 -2.34 128.32 -2 129 C0.30965848 130.05352843 2.6429774 131.05719096 5 132 C5 132.99 5 133.98 5 135 C5.639375 135.12375 6.27875 135.2475 6.9375 135.375 C7.618125 135.58125 8.29875 135.7875 9 136 C9.495 136.99 9.495 136.99 10 138 C10.825 138.309375 11.65 138.61875 12.5 138.9375 C13.325 139.288125 14.15 139.63875 15 140 C15.33 140.99 15.66 141.98 16 143 C18.01508358 143.73323796 18.01508358 143.73323796 20 144 C20 143.34 20 142.68 20 142 C20.66 142 21.32 142 22 142 C21.67 144.64 21.34 147.28 21 150 C14.20640762 145.07131533 7.84268913 139.71101307 1.47412109 134.25390625 C0.20839928 133.17726709 -1.07214822 132.1181003 -2.35546875 131.0625 C-6.89336493 127.31990521 -6.89336493 127.31990521 -8 124 C-8.08985474 122.35049532 -8.12196638 120.69755786 -8.12025452 119.04560852 C-8.12162918 118.02337189 -8.12300385 117.00113525 -8.12442017 115.94792175 C-8.12082489 114.82726822 -8.11722961 113.70661469 -8.11352539 112.55200195 C-8.11367142 111.37138184 -8.11381744 110.19076172 -8.1139679 108.97436523 C-8.11339024 105.73702558 -8.10837183 102.49972905 -8.10139394 99.262398 C-8.09514648 95.87913211 -8.0945555 92.49586538 -8.09336853 89.1125946 C-8.09025933 82.70593784 -8.08205147 76.29929813 -8.07201904 69.89264888 C-8.06084516 62.59888731 -8.05534423 55.30512494 -8.05032361 48.01135695 C-8.03986853 33.0075618 -8.02227702 18.0037826 -8 3 C-2.25 0 -2.25 0 0 0 Z " fill="#5675A0" transform="translate(145,106)"/>
<path d="M0 0 C0.495 0.99 0.495 0.99 1 2 C-0.11375 2.45375 -1.2275 2.9075 -2.375 3.375 C-5.96199008 4.72465986 -5.96199008 4.72465986 -8 7 C-10.8203125 7.6328125 -10.8203125 7.6328125 -14.125 8.125 C-15.22070312 8.29257813 -16.31640625 8.46015625 -17.4453125 8.6328125 C-18.28835937 8.75398438 -19.13140625 8.87515625 -20 9 C-20 9.66 -20 10.32 -20 11 C-20.67546875 11.10957031 -21.3509375 11.21914062 -22.046875 11.33203125 C-22.93890625 11.49058594 -23.8309375 11.64914063 -24.75 11.8125 C-25.63171875 11.96332031 -26.5134375 12.11414063 -27.421875 12.26953125 C-30.21243884 13.060191 -31.72584426 14.24992953 -34 16 C-36.32914823 16.36141955 -38.66253478 16.69699525 -41 17 C-41.66 17.66 -42.32 18.32 -43 19 C-44.98 19 -46.96 19 -49 19 C-49 57.61 -49 96.22 -49 136 C-49.99 135.67 -50.98 135.34 -52 135 C-51.67 96.06 -51.34 57.12 -51 17 C-34 11.33333333 -17 5.66666667 0 0 Z " fill="#466994" transform="translate(169,77)"/>
<path d="M0 0 C0 44.22 0 88.44 0 134 C-0.66 134 -1.32 134 -2 134 C-2 90.77 -2 47.54 -2 3 C-7.999887 4.678169 -7.999887 4.678169 -13.4375 7.125 C-14.11683594 7.47820312 -14.79617187 7.83140625 -15.49609375 8.1953125 C-15.99238281 8.46085937 -16.48867187 8.72640625 -17 9 C-17.66 7.68 -18.32 6.36 -19 5 C-16.58570231 4.15919981 -14.16896007 3.32718598 -11.75 2.5 C-10.72712891 2.14228516 -10.72712891 2.14228516 -9.68359375 1.77734375 C-6.23586997 0.60578713 -3.68297096 0 0 0 Z " fill="#254D85" transform="translate(165,100)"/>
<path d="M0 0 C4.75207471 -0.43200679 7.78210698 1.01510917 12 3 C12 3.66 12 4.32 12 5 C13.32 5.33 14.64 5.66 16 6 C16.33 47.91 16.66 89.82 17 133 C21.455 134.98 21.455 134.98 26 137 C25.67 137.99 25.34 138.98 25 140 C19.555 137.525 19.555 137.525 14 135 C14 92.43 14 49.86 14 6 C9.545 5.01 9.545 5.01 5 4 C2.98967123 3.36515933 0.98421259 2.71228144 -1 2 C-0.67 1.34 -0.34 0.68 0 0 Z " fill="#486793" transform="translate(302,97)"/>
<path d="M0 0 C6.875 1.875 6.875 1.875 8 3 C8.11982351 4.57094128 8.17070108 6.14719087 8.1942749 7.72251892 C8.21154633 8.74438293 8.22881775 9.76624695 8.24661255 10.81907654 C8.26029877 11.94991165 8.27398499 13.08074677 8.28808594 14.24584961 C8.30590118 15.42962189 8.32371643 16.61339417 8.34207153 17.83303833 C8.4967673 28.77995275 8.58552455 39.7278556 8.65206528 50.67563534 C8.70221835 58.76417172 8.78797187 66.85066861 8.92068648 74.93828005 C9.01089699 80.62838844 9.05854781 86.31794029 9.07564378 92.0087319 C9.08707597 95.40500791 9.1171117 98.79868017 9.19359589 102.19416618 C9.63793337 124.57805118 9.63793337 124.57805118 5.47570801 129.94216919 C2.95998538 132.50608888 0.20627483 134.36319608 -3 136 C-4 134 -4 134 -3.4375 132.0625 C-2 130 -2 130 1.0625 128.6875 C2.031875 128.130625 3.00125 127.57375 4 127 C5.40172841 120.9600266 5.17179054 114.7297148 5.20532227 108.55688477 C5.22017166 106.85823021 5.22017166 106.85823021 5.23532104 105.1252594 C5.26680587 101.39732932 5.29164192 97.66938652 5.31640625 93.94140625 C5.33698702 91.35065894 5.35798378 88.7599149 5.37937927 86.16917419 C5.4288574 80.05663289 5.47415255 73.94407382 5.51740164 67.83148569 C5.56689961 60.86891078 5.62177089 53.90638142 5.67708123 46.94385064 C5.79067645 32.62927658 5.89756379 18.31465804 6 4 C4.02 3.34 2.04 2.68 0 2 C0 1.34 0 0.68 0 0 Z " fill="#5170A0" transform="translate(302,106)"/>
<path d="M0 0 C0.99 0 1.98 0 3 0 C3 0.66 3 1.32 3 2 C2.34 2 1.68 2 1 2 C1 72.95 1 143.9 1 217 C1.66 217 2.32 217 3 217 C2.01 218.98 2.01 218.98 1 221 C0.67 221 0.34 221 0 221 C0 148.07 0 75.14 0 0 Z " fill="#304F75" transform="translate(227,81)"/>
<path d="M0 0 C0.66 0 1.32 0 2 0 C2.20881247 11.8568024 2.3685872 23.71316531 2.46630955 35.57143402 C2.51321978 41.07823266 2.57681278 46.58377066 2.67895508 52.08984375 C2.77696775 57.406767 2.83060401 62.72248031 2.85389519 68.04023743 C2.87048583 70.06573024 2.90288599 72.09115904 2.95157051 74.11613464 C3.31902986 90.03787066 3.31902986 90.03787066 -0.06350708 95.06958008 C-2.29006363 97.06881453 -4.35536663 98.61478427 -7 100 C-7.33 98.68 -7.66 97.36 -8 96 C-7.030625 95.7525 -6.06125 95.505 -5.0625 95.25 C-4.051875 94.8375 -3.04125 94.425 -2 94 C-0.49164014 89.93978466 -0.82444183 85.56192915 -0.79467773 81.28417969 C-0.77982834 79.9665715 -0.77982834 79.9665715 -0.76467896 78.62234497 C-0.73312039 75.72221562 -0.7083288 72.82206991 -0.68359375 69.921875 C-0.66301935 67.90976539 -0.64202275 65.89766006 -0.62062073 63.88555908 C-0.56545024 58.59199488 -0.51601879 53.29839199 -0.46777344 48.00476074 C-0.41752176 42.60209718 -0.36185483 37.19948972 -0.30664062 31.796875 C-0.19912048 21.19796461 -0.09766184 10.59900549 0 0 Z " fill="#234E88" transform="translate(252,188)"/>
<path d="M0 0 C1.8871875 0.061875 1.8871875 0.061875 3.8125 0.125 C-5.66622111 6.44414741 -17.41780627 8.41131251 -28.1875 12.125 C-28.5175 54.035 -28.8475 95.945 -29.1875 139.125 C-29.5175 139.125 -29.8475 139.125 -30.1875 139.125 C-30.1875 96.885 -30.1875 54.645 -30.1875 11.125 C-22.32019458 6.6293969 -22.32019458 6.6293969 -19.109375 5.7109375 C-18.42359375 5.50726563 -17.7378125 5.30359375 -17.03125 5.09375 C-16.3403125 4.8978125 -15.649375 4.701875 -14.9375 4.5 C-9.83348288 3.02840382 -5.22467927 -0.17130096 0 0 Z " fill="#2C4B7A" transform="translate(160.1875,91.875)"/>
<path d="M0 0 C8.99270073 6.74452555 8.99270073 6.74452555 13.1875 11.0625 C13.98542969 11.87847656 14.78335938 12.69445313 15.60546875 13.53515625 C16.39566406 14.34855469 17.18585938 15.16195312 18 16 C18.9178125 16.85851562 19.835625 17.71703125 20.78125 18.6015625 C23 21 23 21 23.3125 24.3125 C23.209375 25.199375 23.10625 26.08625 23 27 C25.64 27.66 28.28 28.32 31 29 C27 30 27 30 24.4375 29.6875 C20.92610357 27.25653324 20.72732415 24.37516563 19.87109375 20.3125 C19.21670295 17.85202715 19.21670295 17.85202715 17.01953125 16.8046875 C16.35308594 16.53914063 15.68664062 16.27359375 15 16 C14.4225 15.38125 13.845 14.7625 13.25 14.125 C10.37758646 11.20711891 10.37758646 11.20711891 3 8 C2.67 15.59 2.34 23.18 2 31 C5.63 31.99 9.26 32.98 13 34 C13.99 34.33 14.98 34.66 16 35 C16.33 35.99 16.66 36.98 17 38 C15.28954625 37.57086481 13.58172118 37.13124751 11.875 36.6875 C10.92367187 36.44386719 9.97234375 36.20023438 8.9921875 35.94921875 C6 35 6 35 0 32 C0 21.44 0 10.88 0 0 Z " fill="#304D6F" transform="translate(227,41)"/>
<path d="M0 0 C0.66 0 1.32 0 2 0 C2.33 0.99 2.66 1.98 3 3 C2.01 3.495 2.01 3.495 1 4 C2.32 4.66 3.64 5.32 5 6 C5 6.99 5 7.98 5 9 C6.24663331 9.50833591 7.49749387 10.00631145 8.75 10.5 C9.44609375 10.7784375 10.1421875 11.056875 10.859375 11.34375 C13.26422695 12.19540327 13.26422695 12.19540327 17 12 C19.25 14.5 19.25 14.5 21 17 C20.1875 19.4375 20.1875 19.4375 19 22 C18.01 22.33 17.02 22.66 16 23 C15.67 23.66 15.34 24.32 15 25 C11 20.25 11 20.25 11 18 C10.1028125 17.566875 10.1028125 17.566875 9.1875 17.125 C7 16 7 16 4 14 C4 13.34 4 12.68 4 12 C3.236875 11.979375 2.47375 11.95875 1.6875 11.9375 C-1 11 -1 11 -2.8125 7.4375 C-3.204375 6.303125 -3.59625 5.16875 -4 4 C-2.66666667 2.66666667 -1.33333333 1.33333333 0 0 Z " fill="#1B4E9B" transform="translate(185,285)"/>
<path d="M0 0 C0 10.23 0 20.46 0 31 C-1.65 31.66 -3.3 32.32 -5 33 C-5.66 32.34 -6.32 31.68 -7 31 C-5.35 30.67 -3.7 30.34 -2 30 C-2.495 18.12 -2.495 18.12 -3 6 C-4.32 7.32 -5.64 8.64 -7 10 C-7.99 10 -8.98 10 -10 10 C-10.14308594 10.88945313 -10.14308594 10.88945313 -10.2890625 11.796875 C-11.15302616 14.47421293 -12.23174829 15.45943528 -14.375 17.25 C-14.98085937 17.77078125 -15.58671875 18.2915625 -16.2109375 18.828125 C-18 20 -18 20 -21 20 C-20.95875 21.11375 -20.9175 22.2275 -20.875 23.375 C-21 27 -21 27 -23 29 C-25.68839385 29.26991906 -28.29141936 29.08737357 -31 29 C-27.81237635 26.87491756 -25.73487777 26.4979837 -22 26 C-22.185625 25.030625 -22.37125 24.06125 -22.5625 23.0625 C-22.56835262 20.16545521 -22.08019479 19.10347128 -20.27734375 16.77734375 C-17.92316847 14.42316847 -15.50404303 12.19394482 -13 10 C-12.24976563 9.33226562 -11.49953125 8.66453125 -10.7265625 7.9765625 C-9.40235035 6.80987744 -8.07004182 5.65225785 -6.7265625 4.5078125 C-4.9695883 3.02203902 -4.9695883 3.02203902 -3.3984375 1.3046875 C-2 0 -2 0 0 0 Z " fill="#2C5186" transform="translate(220,42)"/>
<path d="M0 0 C3.25370726 1.42921108 6.50225282 2.86980239 9.75 4.3125 C11.13058594 4.91868164 11.13058594 4.91868164 12.5390625 5.53710938 C13.42851562 5.93349609 14.31796875 6.32988281 15.234375 6.73828125 C16.45979004 7.28029175 16.45979004 7.28029175 17.70996094 7.83325195 C20.02849196 9.01451632 21.96979169 10.37950241 24 12 C22.35 12.66 20.7 13.32 19 14 C19.99 15.485 19.99 15.485 21 17 C15.54581918 15.32243897 10.58618731 12.97888133 5.47851562 10.47851562 C2.00240683 8.81295383 -1.17231126 7.53631723 -5 7 C-4.175 6.21625 -3.35 5.4325 -2.5 4.625 C0.22988506 2.36278736 0.22988506 2.36278736 0 0 Z " fill="#EBF6FA" transform="translate(318,232)"/>
<path d="M0 0 C0.33 0 0.66 0 1 0 C1.33 42.57 1.66 85.14 2 129 C-3.28 131.31 -8.56 133.62 -14 136 C-13 132 -13 132 -11.29296875 130.953125 C-10.59816406 130.72109375 -9.90335937 130.4890625 -9.1875 130.25 C-8.15689453 129.88648438 -8.15689453 129.88648438 -7.10546875 129.515625 C-5 129 -5 129 -1 129 C-0.67 86.43 -0.34 43.86 0 0 Z " fill="#224E8C" transform="translate(129,103)"/>
<path d="M0 0 C3.4152027 0.61925465 6.59353472 1.46867361 9.86328125 2.62890625 C10.74951172 2.94150391 11.63574219 3.25410156 12.54882812 3.57617188 C13.9168457 4.0644043 13.9168457 4.0644043 15.3125 4.5625 C16.24384766 4.89185547 17.17519531 5.22121094 18.13476562 5.56054688 C20.42426723 6.37067821 22.71261458 7.18391683 25 8 C23.02 8.99 23.02 8.99 21 10 C21 10.66 21 11.32 21 12 C23.31 12.33 25.62 12.66 28 13 C28 14.32 28 15.64 28 17 C22.51641279 15.19642813 17.07165466 13.28637952 11.625 11.375 C10.69816406 11.05015625 9.77132812 10.7253125 8.81640625 10.390625 C6.54412801 9.59415634 4.27199709 8.79727023 2 8 C2 7.34 2 6.68 2 6 C2.66 6 3.32 6 4 6 C2.88145414 2.27385847 2.88145414 2.27385847 0 0 Z " fill="#EBF7FB" transform="translate(228,74)"/>
<path d="M0 0 C-3.37097383 1.49821059 -5.20442119 2 -9 2 C-8.99446924 2.60353145 -8.98893848 3.20706289 -8.98324013 3.82888317 C-8.85070078 18.51805073 -8.75142981 33.20718294 -8.68912697 47.89680767 C-8.65819624 55.00067819 -8.61603186 62.10414944 -8.54736328 69.20776367 C-8.48114413 76.06125999 -8.44630848 82.91434093 -8.43073654 89.76813698 C-8.4196373 92.38490141 -8.39796326 95.00164274 -8.36561966 97.61823082 C-8.32215728 101.2794365 -8.3160621 104.93892028 -8.31884766 108.6003418 C-8.297276 109.68575256 -8.27570435 110.77116333 -8.253479 111.88946533 C-8.31295715 119.09884898 -8.31295715 119.09884898 -10.38154221 121.81208229 C-12.04257202 123.21247864 -12.04257202 123.21247864 -15 125 C-14.67 123.02 -14.34 121.04 -14 119 C-13.34 119 -12.68 119 -12 119 C-11.13115767 116.00384071 -10.88178468 113.35752217 -10.89993286 110.24252319 C-10.90289368 109.28911545 -10.90585449 108.3357077 -10.90890503 107.35340881 C-10.91721344 106.31429855 -10.92552185 105.27518829 -10.93408203 104.20458984 C-10.93875488 103.10506485 -10.94342773 102.00553986 -10.94824219 100.87269592 C-10.95874405 98.4854776 -10.97140651 96.09826804 -10.98596573 93.71107101 C-11.00794586 89.93804526 -11.02205135 86.16506938 -11.03366089 82.39199829 C-11.06730554 71.66458006 -11.1088427 60.93725119 -11.17138672 50.20996094 C-11.20954164 43.65017875 -11.23202408 37.09045297 -11.24569321 30.53056717 C-11.25377278 28.0258001 -11.26741684 25.5210448 -11.28662491 23.01633835 C-11.31295544 19.52299116 -11.32098349 16.03005479 -11.32470703 12.53662109 C-11.3370639 11.49346237 -11.34942078 10.45030365 -11.3621521 9.37553406 C-11.35947327 8.42776596 -11.35679443 7.47999786 -11.35403442 6.50350952 C-11.35809862 5.67724752 -11.36216282 4.85098553 -11.36635017 3.99968529 C-11.18500684 3.00984107 -11.18500684 3.00984107 -11 2 C-6.98764085 -0.6749061 -4.6342454 -1.48957888 0 0 Z " fill="#ECFCFE" transform="translate(127,92)"/>
<path d="M0 0 C0 39.27 0 78.54 0 119 C-0.33 119 -0.66 119 -1 119 C-1 80.72 -1 42.44 -1 3 C-6.94 1.515 -6.94 1.515 -13 0 C-13 -0.66 -13 -1.32 -13 -2 C-11 -3 -11 -3 0 0 Z " fill="#2C4C7B" transform="translate(329,94)"/>
<path d="M0 0 C6.46194676 3.41095313 12.4354081 7.25241457 18.375 11.5 C20.11773109 12.73544563 21.86124231 13.96979143 23.60546875 15.203125 C24.93263916 16.14188477 24.93263916 16.14188477 26.28662109 17.09960938 C29.00420895 19.00294786 31.74091623 20.87431804 34.48828125 22.734375 C35.3611377 23.32541016 36.23399414 23.91644531 37.13330078 24.52539062 C38.81034363 25.65773919 40.48964067 26.78675778 42.17138672 27.91210938 C42.92307129 28.42064453 43.67475586 28.92917969 44.44921875 29.453125 C45.11268311 29.89817383 45.77614746 30.34322266 46.4597168 30.80175781 C48 32 48 32 49 34 C47.35 33.67 45.7 33.34 44 33 C43.67 32.01 43.34 31.02 43 30 C41.68 30.33 40.36 30.66 39 31 C39 30.34 39 29.68 39 29 C38.01 28.67 37.02 28.34 36 28 C34.3125 26.5625 34.3125 26.5625 33 25 C33 24.34 33 23.68 33 23 C31.88625 22.566875 31.88625 22.566875 30.75 22.125 C28.43260203 21.17697356 26.22082885 20.15154089 24 19 C24 18.34 24 17.68 24 17 C23.13375 16.731875 22.2675 16.46375 21.375 16.1875 C18 15 18 15 15 13.375 C11.726905 11.87483146 9.55560695 11.74602808 6 12 C6 10.02 6 8.04 6 6 C5.34 6 4.68 6 4 6 C3.67 5.34 3.34 4.68 3 4 C2.01 3.67 1.02 3.34 0 3 C0 2.01 0 1.02 0 0 Z " fill="#2C5289" transform="translate(165,234)"/>
<path d="M0 0 C11.25 2.25 11.25 2.25 15.125 3.625 C15.87007813 3.88539062 16.61515625 4.14578125 17.3828125 4.4140625 C18.18332031 4.70410156 18.18332031 4.70410156 19 5 C19 5.66 19 6.32 19 7 C18.02417969 6.7834375 17.04835938 6.566875 16.04296875 6.34375 C14.77066406 6.0653125 13.49835938 5.786875 12.1875 5.5 C10.92292969 5.2215625 9.65835937 4.943125 8.35546875 4.65625 C5.07913666 3.90403008 5.07913666 3.90403008 2 4 C1.67 26.44 1.34 48.88 1 72 C0.67 72 0.34 72 0 72 C0 48.24 0 24.48 0 0 Z " fill="#2C4C75" transform="translate(282,100)"/>
<path d="M0 0 C0.495 0.99 0.495 0.99 1 2 C-0.11375 2.45375 -1.2275 2.9075 -2.375 3.375 C-5.96199008 4.72465986 -5.96199008 4.72465986 -8 7 C-10.8203125 7.6328125 -10.8203125 7.6328125 -14.125 8.125 C-15.22070312 8.29257813 -16.31640625 8.46015625 -17.4453125 8.6328125 C-18.28835937 8.75398438 -19.13140625 8.87515625 -20 9 C-20 9.66 -20 10.32 -20 11 C-20.67546875 11.10957031 -21.3509375 11.21914062 -22.046875 11.33203125 C-22.93890625 11.49058594 -23.8309375 11.64914063 -24.75 11.8125 C-25.63171875 11.96332031 -26.5134375 12.11414063 -27.421875 12.26953125 C-30.21243884 13.060191 -31.72584426 14.24992953 -34 16 C-36.32914823 16.36141955 -38.66253478 16.69699525 -41 17 C-41.66 17.66 -42.32 18.32 -43 19 C-43.99 19 -44.98 19 -46 19 C-46.33 18.01 -46.66 17.02 -47 16 C-40.95024886 13.8795973 -34.89953522 11.76195927 -28.84814453 9.64624023 C-26.78965344 8.92617389 -24.73138351 8.205475 -22.67333984 7.48413086 C-19.71509796 6.44739052 -16.75606817 5.41292769 -13.796875 4.37890625 C-12.87694763 4.05596085 -11.95702026 3.73301544 -11.00921631 3.40028381 C-10.1486261 3.10004807 -9.28803589 2.79981232 -8.40136719 2.49047852 C-7.64635925 2.22622574 -6.89135132 1.96197296 -6.11346436 1.68971252 C-4.09063309 1.0295774 -2.07032243 0.48831435 0 0 Z " fill="#34598D" transform="translate(169,77)"/>
<path d="M0 0 C8.25 2.64 16.5 5.28 25 8 C21.42489889 8.89377528 19.75082437 9.0258444 16.25 8.5625 C15.45078125 8.46066406 14.6515625 8.35882813 13.828125 8.25390625 C13.22484375 8.17011719 12.6215625 8.08632812 12 8 C15.6678852 9.96189209 18.87248551 11.39301257 23 12 C23 12.99 23 13.98 23 15 C15.3194457 12.71143755 7.65750046 10.36446331 0 8 C0.639375 7.525625 1.27875 7.05125 1.9375 6.5625 C3.88293306 5.16261274 3.88293306 5.16261274 5 4 C2.525 3.01 2.525 3.01 0 2 C0 1.34 0 0.68 0 0 Z " fill="#E3F1F8" transform="translate(285,93)"/>
<path d="M0 0 C0.66 0.66 1.32 1.32 2 2 C4.31648799 3.03842565 6.64903024 4.0421975 9 5 C9 5.99 9 6.98 9 8 C9.639375 8.12375 10.27875 8.2475 10.9375 8.375 C11.618125 8.58125 12.29875 8.7875 13 9 C13.33 9.66 13.66 10.32 14 11 C14.825 11.309375 15.65 11.61875 16.5 11.9375 C17.325 12.288125 18.15 12.63875 19 13 C19.33 13.99 19.66 14.98 20 16 C22.01508358 16.73323796 22.01508358 16.73323796 24 17 C24 16.34 24 15.68 24 15 C24.66 15 25.32 15 26 15 C25.67 17.64 25.34 20.28 25 23 C19.93970007 19.32880201 15.08909113 15.46671026 10.3125 11.4375 C9.76634033 10.97883545 9.22018066 10.5201709 8.6574707 10.04760742 C5.27298983 7.1743215 2.09896682 4.17945947 -1 1 C-0.67 0.67 -0.34 0.34 0 0 Z " fill="#2E548D" transform="translate(141,233)"/>
<path d="M0 0 C0.33 0.99 0.66 1.98 1 3 C-1.80804268 5.96404505 -4.18315774 8.44499019 -8 10 C-7.67 10.66 -7.34 11.32 -7 12 C-7.66 12 -8.32 12 -9 12 C-9 12.66 -9 13.32 -9 14 C-11.64738916 15.4606285 -12.89448334 16 -16 16 C-16.33 16.99 -16.66 17.98 -17 19 C-19.0625 20.1875 -19.0625 20.1875 -21 21 C-20.67 21.66 -20.34 22.32 -20 23 C-24.625 26 -24.625 26 -28 26 C-26.50282382 22.28601048 -24.44574726 20.50259241 -21.3125 18.0625 C-16.3732183 14.13472014 -11.57090943 10.0826511 -6.8125 5.9375 C-6.14065674 5.35299072 -5.46881348 4.76848145 -4.77661133 4.16625977 C-3.18328695 2.77879232 -1.59147543 1.38958786 0 0 Z " fill="#2D538A" transform="translate(254,288)"/>
<path d="M0 0 C2.46938403 3.70407605 3.45182375 7.32036359 4.6875 11.5625 C4.92533203 12.34302734 5.16316406 13.12355469 5.40820312 13.92773438 C7.12262357 19.75475285 7.12262357 19.75475285 6 22 C1.71 20.02 -2.58 18.04 -7 16 C-7 15.34 -7 14.68 -7 14 C-4.36 14 -1.72 14 1 14 C0.67 13.01 0.34 12.02 0 11 C-0.0685495 9.10529184 -0.08480372 7.2083166 -0.0625 5.3125 C-0.05347656 4.31863281 -0.04445313 3.32476562 -0.03515625 2.30078125 C-0.02355469 1.54152344 -0.01195312 0.78226563 0 0 Z " fill="#2F568E" transform="translate(336,222)"/>
<path d="M0 0 C0.99 0.33 1.98 0.66 3 1 C-6.96004083 10.13903963 -17.42865735 18.58420227 -28 27 C-28.33 26.01 -28.66 25.02 -29 24 C-28.360625 23.896875 -27.72125 23.79375 -27.0625 23.6875 C-26.0415625 23.3471875 -26.0415625 23.3471875 -25 23 C-24.67 22.01 -24.34 21.02 -24 20 C-21.9804327 18.39886313 -19.86618123 17.0154973 -17.71484375 15.59765625 C-17.14894531 15.07042969 -16.58304687 14.54320312 -16 14 C-16 12.68 -16 11.36 -16 10 C-14.68 10.33 -13.36 10.66 -12 11 C-12 10.34 -12 9.68 -12 9 C-7.61538462 6 -7.61538462 6 -5 6 C-4.731875 5.38125 -4.46375 4.7625 -4.1875 4.125 C-3 2 -3 2 0 0 Z " fill="#2E5486" transform="translate(304,260)"/>
<path d="M0 0 C0.66 0.33 1.32 0.66 2 1 C1.67 1.66 1.34 2.32 1 3 C1.66 3 2.32 3 3 3 C3 3.66 3 4.32 3 5 C3.66 5 4.32 5 5 5 C5 5.66 5 6.32 5 7 C4.40832031 7.19335938 3.81664062 7.38671875 3.20703125 7.5859375 C-0.9146645 8.94414719 -4.9950524 10.32050585 -9 12 C-8.67 10.68 -8.34 9.36 -8 8 C-7.34 8 -6.68 8 -6 8 C-6 7.01 -6 6.02 -6 5 C-8.475 6.485 -8.475 6.485 -11 8 C-11.66 7.34 -12.32 6.68 -13 6 C-10.87959258 4.96966118 -8.75352092 3.95097146 -6.625 2.9375 C-5.44164063 2.36902344 -4.25828125 1.80054688 -3.0390625 1.21484375 C-2.03617188 0.81394531 -1.03328125 0.41304687 0 0 Z " fill="#EAF6FB" transform="translate(129,232)"/>
<path d="M0 0 C3.2826932 1.49076434 5.93077441 3.38620321 8.75 5.625 C9.94882813 6.57246094 9.94882813 6.57246094 11.171875 7.5390625 C11.77515625 8.02117187 12.3784375 8.50328125 13 9 C12.01 9.33 11.02 9.66 10 10 C10 9.34 10 8.68 10 8 C8.68 8 7.36 8 6 8 C7.22934015 11.68802044 8.93859378 12.72356973 12 15 C11.67 15.99 11.34 16.98 11 18 C9.22831754 16.39676273 7.45763108 14.79244861 5.6875 13.1875 C5.18798828 12.73568359 4.68847656 12.28386719 4.17382812 11.81835938 C1.72635224 9.59780179 -0.69450785 7.36844075 -3 5 C-1.68 4.67 -0.36 4.34 1 4 C0.67 2.68 0.34 1.36 0 0 Z " fill="#E8F4FB" transform="translate(190,278)"/>
<path d="M0 0 C0.93426546 3.37980303 0.95571279 5.93742075 0.5625 9.4375 C0.1726367 12.98574956 -0.05832408 16.42926997 0 20 C0.66 20.33 1.32 20.66 2 21 C2 21.66 2 22.32 2 23 C-2.455 24.485 -2.455 24.485 -7 26 C-6.36519395 20.077822 -4.78907028 14.71172256 -2.9375 9.0625 C-2.65583984 8.18787109 -2.37417969 7.31324219 -2.08398438 6.41210938 C-1.39434445 4.27305673 -0.69959171 2.13581421 0 0 Z " fill="#2E568D" transform="translate(112,217)"/>
<path d="M0 0 C0.33 0 0.66 0 1 0 C1 21.78 1 43.56 1 66 C1.66 66 2.32 66 3 66 C2.67 67.65 2.34 69.3 2 71 C0.515 71.495 0.515 71.495 -1 72 C-0.67 48.24 -0.34 24.48 0 0 Z " fill="#244E8A" transform="translate(283,104)"/>
<path d="M0 0 C1.32 0.33 2.64 0.66 4 1 C4 1.66 4 2.32 4 3 C-0.65354138 5.05541034 -5.31436213 7.09254595 -9.98242188 9.11474609 C-11.69034067 9.8641306 -13.38576846 10.64188514 -15.078125 11.42578125 C-21.21136952 14.16316493 -21.21136952 14.16316493 -25.625 13.25 C-26.40875 12.8375 -27.1925 12.425 -28 12 C-28 11.67 -28 11.34 -28 11 C-27.443125 10.89042969 -26.88625 10.78085937 -26.3125 10.66796875 C-22.32873921 9.84026169 -18.58490129 8.91460672 -14.8125 7.375 C-11.44183292 6.03078607 -8.657391 5.72569568 -5 6 C-5 5.34 -5 4.68 -5 4 C-4.01 3.67 -3.02 3.34 -2 3 C-1.34 2.01 -0.68 1.02 0 0 Z " fill="#2E5585" transform="translate(335,248)"/>
<path d="M0 0 C0.66 0 1.32 0 2 0 C2.90816798 3.86207074 3.11643845 7.43148656 3.09765625 11.39453125 C3.09443359 12.59658203 3.09121094 13.79863281 3.08789062 15.03710938 C3.07951172 16.28298828 3.07113281 17.52886719 3.0625 18.8125 C3.05798828 20.07771484 3.05347656 21.34292969 3.04882812 22.64648438 C3.03706251 25.7643711 3.02062272 28.88216133 3 32 C3.66 32.33 4.32 32.66 5 33 C3.515 33.495 3.515 33.495 2 34 C1.34 34.66 0.68 35.32 0 36 C-2.625 35.625 -2.625 35.625 -5 35 C-2 33 -2 33 0 32 C0 21.44 0 10.88 0 0 Z " fill="#C7DAE8" transform="translate(219,41)"/>
<path d="M0 0 C2.87796938 5.27328271 4.3587149 11.12519448 6.10595703 16.84448242 C6.53544066 18.2402228 6.97197937 19.63381167 7.41552734 21.02514648 C8.05840777 23.04218977 8.67982517 25.06477012 9.296875 27.08984375 C9.67166992 28.29503662 10.04646484 29.50022949 10.43261719 30.74194336 C11.05336074 34.30641095 10.68272645 35.85472733 9 39 C8.34 38.67 7.68 38.34 7 38 C6.69140625 35.8125 6.69140625 35.8125 6.5625 33 C6.16239657 27.55999728 4.87939752 23.08231441 3 18 C0.85172685 11.7787565 -0.36667148 6.60008659 0 0 Z " fill="#3B5C8E" transform="translate(260,110)"/>
<path d="M0 0 C0.66 0 1.32 0 2 0 C2 0.66 2 1.32 2 2 C2.66 2 3.32 2 4 2 C4 2.66 4 3.32 4 4 C5.32 4 6.64 4 8 4 C8 4.99 8 5.98 8 7 C8.66 7 9.32 7 10 7 C10 7.66 10 8.32 10 9 C10.94875 9.268125 11.8975 9.53625 12.875 9.8125 C16 11 16 11 18 14 C22.455 13.505 22.455 13.505 27 13 C24.6875 15.5 24.6875 15.5 22 18 C18.40356265 18 17.77481246 17.30691575 15.05859375 15.078125 C14.31029297 14.46453125 13.56199219 13.8509375 12.79101562 13.21875 C12.01435547 12.5690625 11.23769531 11.919375 10.4375 11.25 C9.65697266 10.61578125 8.87644531 9.9815625 8.07226562 9.328125 C1.7458141 4.08792356 1.7458141 4.08792356 0 0 Z " fill="#2E5286" transform="translate(203,312)"/>
<path d="M0 0 C2.46948242 1.05786133 2.46948242 1.05786133 5 3 C5.56762695 6.1862793 5.56762695 6.1862793 5.48828125 10.07421875 C5.48120651 10.7580513 5.47413177 11.44188385 5.46684265 12.1464386 C5.43888004 14.32791159 5.37615064 16.50680494 5.3125 18.6875 C5.28741897 20.1672806 5.26460544 21.64710149 5.24414062 23.12695312 C5.18905135 26.75213863 5.10277108 30.37581753 5 34 C0.71543373 30.83388953 -3.52259209 27.67625706 -7.5 24.125 C-8.1703125 23.52945312 -8.840625 22.93390625 -9.53125 22.3203125 C-10.0159375 21.88460938 -10.500625 21.44890625 -11 21 C-10.34 20.67 -9.68 20.34 -9 20 C-7.82780457 20.78345715 -6.66236332 21.57702836 -5.5 22.375 C-4.8503125 22.81585938 -4.200625 23.25671875 -3.53125 23.7109375 C-3.0259375 24.13632812 -2.520625 24.56171875 -2 25 C-2 25.66 -2 26.32 -2 27 C-0.02 27.66 1.96 28.32 4 29 C4 20.75 4 12.5 4 4 C2.68 3.34 1.36 2.68 0 2 C0 1.34 0 0.68 0 0 Z " fill="#33527E" transform="translate(215,268)"/>
<path d="M0 0 C0 0.99 0 1.98 0 3 C-1.98260426 4.68732277 -3.9832342 6.35366057 -6 8 C-6.33 8.99 -6.66 9.98 -7 11 C-5.68 11.66 -4.36 12.32 -3 13 C-5.64 14.98 -8.28 16.96 -11 19 C-10.67 17.35 -10.34 15.7 -10 14 C-12.64 14.66 -15.28 15.32 -18 16 C-14.25333462 12.14044075 -10.31478678 8.63380746 -6.1875 5.1875 C-5.59001953 4.68541016 -4.99253906 4.18332031 -4.37695312 3.66601562 C-2.91971152 2.44193268 -1.46010135 1.22067038 0 0 Z " fill="#E2F1F8" transform="translate(300,240)"/>
<path d="M0 0 C4.49347258 0 4.49347258 0 7.25 2.5625 C8.14332031 3.37654297 8.14332031 3.37654297 9.0546875 4.20703125 C9.69664062 4.79871094 10.33859375 5.39039063 11 6 C12.45668541 7.25192002 13.91500572 8.50194038 15.375 9.75 C18.875 12.75 18.875 12.75 20 15 C20.039992 16.99960012 20.04346799 19.00047242 20 21 C22.64 21.66 25.28 22.32 28 23 C24 24 24 24 21.4375 23.6875 C17.92610357 21.25653324 17.72732415 18.37516563 16.87109375 14.3125 C16.21670295 11.85202715 16.21670295 11.85202715 14.01953125 10.8046875 C13.35308594 10.53914063 12.68664062 10.27359375 12 10 C11.4225 9.38125 10.845 8.7625 10.25 8.125 C7.20965748 5.2535654 3.7777876 3.72384483 0 2 C0 1.34 0 0.68 0 0 Z " fill="#335685" transform="translate(230,47)"/>
<path d="M0 0 C3.93968041 0.55894779 5.85026994 2.429403 8.6875 5.125 C13.26278791 9.37396723 18.01003439 13.25149927 23 17 C21.1875 17.625 21.1875 17.625 19 18 C18.01 17.34 17.02 16.68 16 16 C16 15.34 16 14.68 16 14 C15.236875 13.938125 14.47375 13.87625 13.6875 13.8125 C11 13 11 13 9.1875 10.4375 C8.795625 9.633125 8.40375 8.82875 8 8 C7.01 8.33 6.02 8.66 5 9 C4.87625 8.4225 4.7525 7.845 4.625 7.25 C3.98583433 4.94900359 3.20694364 3.05890385 2 1 C1.34 0.67 0.68 0.34 0 0 Z " fill="#2F558B" transform="translate(200,296)"/>
<path d="M0 0 C1.134375 0.020625 2.26875 0.04125 3.4375 0.0625 C-0.24895576 3.84542376 -4.09301132 7.3397449 -8.125 10.75 C-8.97094727 11.47799805 -8.97094727 11.47799805 -9.83398438 12.22070312 C-12.60227748 14.56808617 -15.19771704 16.6557081 -18.5625 18.0625 C-18.0675 16.5775 -18.0675 16.5775 -17.5625 15.0625 C-16.9025 15.0625 -16.2425 15.0625 -15.5625 15.0625 C-14.9025 13.7425 -14.2425 12.4225 -13.5625 11.0625 C-12.9025 11.0625 -12.2425 11.0625 -11.5625 11.0625 C-11.5625 10.4025 -11.5625 9.7425 -11.5625 9.0625 C-10.5725 9.0625 -9.5825 9.0625 -8.5625 9.0625 C-8.8925 7.7425 -9.2225 6.4225 -9.5625 5.0625 C-8.2425 5.3925 -6.9225 5.7225 -5.5625 6.0625 C-5.418125 5.258125 -5.27375 4.45375 -5.125 3.625 C-4.26443625 -0.29534596 -4.23242358 0.07425305 0 0 Z " fill="#30568C" transform="translate(266.5625,291.9375)"/>
<path d="M0 0 C-4.60566246 3.07044164 -9.77285001 4.44207055 -15 6.1875 C-16.10601562 6.56841797 -17.21203125 6.94933594 -18.3515625 7.34179688 C-19.94097656 7.87450195 -19.94097656 7.87450195 -21.5625 8.41796875 C-23.01849609 8.90946411 -23.01849609 8.90946411 -24.50390625 9.41088867 C-27 10 -27 10 -30 9 C-27 7 -27 7 -23 7 C-23 6.34 -23 5.68 -23 5 C-20.36 4.67 -17.72 4.34 -15 4 C-15 3.34 -15 2.68 -15 2 C-9.75614911 0.2520497 -5.52677733 -0.19392201 0 0 Z " fill="#2F548A" transform="translate(194,82)"/>
<path d="M0 0 C0.99 0.33 1.98 0.66 3 1 C0.54435315 3.22755317 -1.91663321 5.44860866 -4.38671875 7.66015625 C-5.89759965 9.01294797 -7.40328529 10.37168768 -8.89453125 11.74609375 C-10.4375 13.125 -10.4375 13.125 -13 15 C-13.99 14.67 -14.98 14.34 -16 14 C-15.6875 12.0625 -15.6875 12.0625 -15 10 C-14.01 9.67 -13.02 9.34 -12 9 C-11.319375 8.2884375 -11.319375 8.2884375 -10.625 7.5625 C-9 6 -9 6 -6.5625 5.0625 C-3.64854843 3.85427618 -2.09261228 2.32512475 0 0 Z " fill="#2A5390" transform="translate(245,310)"/>
<path d="M0 0 C1.26237731 2.52475462 1.09856404 4.31200466 1.0625 7.125 C1.05347656 8.03507812 1.04445312 8.94515625 1.03515625 9.8828125 C1.02355469 10.58148438 1.01195312 11.28015625 1 12 C0.67 12 0.34 12 0 12 C0 9.03 0 6.06 0 3 C-5.42096702 4.35524176 -10.0778687 6.36634013 -15 9 C-15.66 7.68 -16.32 6.36 -17 5 C-14.54285453 4.16301614 -12.08441143 3.33027576 -9.625 2.5 C-8.92632812 2.26152344 -8.22765625 2.02304688 -7.5078125 1.77734375 C-2.2265625 0 -2.2265625 0 0 0 Z " fill="#32578D" transform="translate(163,100)"/>
<path d="M0 0 C0.66 0 1.32 0 2 0 C2.66 0.99 3.32 1.98 4 3 C5.32 2.67 6.64 2.34 8 2 C8 1.34 8 0.68 8 0 C8.66 0 9.32 0 10 0 C8.45635766 3.98622934 5.93174833 5.94281064 2.625 8.5625 C1.66851562 9.32691406 0.71203125 10.09132813 -0.2734375 10.87890625 C-2.49895698 12.61022012 -4.7353963 14.32032949 -7 16 C-6.875 14.3125 -6.875 14.3125 -6 12 C-4.989375 11.175 -3.97875 10.35 -2.9375 9.5 C-1.968125 8.675 -0.99875 7.85 0 7 C0 5.68 0 4.36 0 3 C-0.66 2.67 -1.32 2.34 -2 2 C-1.34 1.34 -0.68 0.68 0 0 Z " fill="#E5F2F8" transform="translate(249,283)"/>
<path d="M0 0 C2.05078125 0.03255208 4.1015625 0.06510417 6.15234375 0.09765625 C2.89813531 2.26712854 0.00976147 3.25850612 -3.703125 4.48046875 C-4.69557976 4.80916458 -4.69557976 4.80916458 -5.70808411 5.14450073 C-7.81573446 5.84146604 -9.92538727 6.53213398 -12.03515625 7.22265625 C-13.46693353 7.69489838 -14.89857585 8.16754992 -16.33007812 8.640625 C-19.83438548 9.79771861 -23.34051573 10.94917451 -26.84765625 12.09765625 C-26.84765625 11.43765625 -26.84765625 10.77765625 -26.84765625 10.09765625 C-19.86133412 7.21620081 -12.79264097 4.62965847 -5.65625 2.1484375 C-3.33444557 1.2797791 -2.31136784 0.12216532 0 0 Z " fill="#305386" transform="translate(157.84765625,91.90234375)"/>
<path d="M0 0 C0.99 0.33 1.98 0.66 3 1 C3 1.66 3 2.32 3 3 C3.99 3.33 4.98 3.66 6 4 C6 4.66 6 5.32 6 6 C9.3 6.66 12.6 7.32 16 8 C15.67 8.66 15.34 9.32 15 10 C6.185701 7.74603165 -2.39630728 4.9375631 -11 2 C-7.06204091 0.77580837 -4.83887763 1.51679728 -1 3 C-0.67 2.01 -0.34 1.02 0 0 Z " fill="#35588A" transform="translate(285,88)"/>
<path d="M0 0 C1.68222656 0.54624023 1.68222656 0.54624023 3.3984375 1.10351562 C4.5740625 1.49345703 5.7496875 1.88339844 6.9609375 2.28515625 C8.73597656 2.86426758 8.73597656 2.86426758 10.546875 3.45507812 C13.47879277 4.4126803 16.40827496 5.3771377 19.3359375 6.34765625 C19.3359375 6.67765625 19.3359375 7.00765625 19.3359375 7.34765625 C13.16975569 7.74979854 8.15847993 6.31583961 2.3359375 4.34765625 C2.3359375 3.68765625 2.3359375 3.02765625 2.3359375 2.34765625 C1.3459375 2.67765625 0.3559375 3.00765625 -0.6640625 3.34765625 C-0.6640625 2.68765625 -0.6640625 2.02765625 -0.6640625 1.34765625 C-2.9740625 1.34765625 -5.2840625 1.34765625 -7.6640625 1.34765625 C-7.6640625 0.68765625 -7.6640625 0.02765625 -7.6640625 -0.65234375 C-4.70824193 -2.13025403 -3.09814741 -1.01706859 0 0 Z " fill="#2F548A" transform="translate(297.6640625,83.65234375)"/>
<path d="M0 0 C2.475 0.495 2.475 0.495 5 1 C5 1.66 5 2.32 5 3 C5.804375 3.12375 6.60875 3.2475 7.4375 3.375 C8.7059375 3.684375 8.7059375 3.684375 10 4 C10.33 4.66 10.66 5.32 11 6 C10.67 6.66 10.34 7.32 10 8 C10.66 8 11.32 8 12 8 C12 8.99 12 9.98 12 11 C8.49979578 10.6999825 7.05095809 10.04266259 4.3125 7.75 C2.13822589 5.16437673 1.00371328 3.19363318 0 0 Z " fill="#F8FDFA" transform="translate(195,285)"/>
<path d="M0 0 C6.45823983 1.46224298 6.45823983 1.46224298 8.5859375 3.57421875 C10.52176381 6.89506996 11.40973933 10.36151436 12.3125 14.0625 C12.50650391 14.78244141 12.70050781 15.50238281 12.90039062 16.24414062 C13.42578125 18.34765625 13.42578125 18.34765625 14 22 C13.34 22.99 12.68 23.98 12 25 C11.74605469 23.90300781 11.49210937 22.80601563 11.23046875 21.67578125 C10.88325755 20.22124786 10.53557642 18.76682658 10.1875 17.3125 C10.02185547 16.59126953 9.85621094 15.87003906 9.68554688 15.12695312 C8.6809603 10.97592557 7.61630109 7.47060348 5 4 C2.40877257 3.11341534 2.40877257 3.11341534 0 3 C0 2.01 0 1.02 0 0 Z " fill="#395D8D" transform="translate(246,87)"/>
<path d="M0 0 C0.8125 1.6875 0.8125 1.6875 1 4 C-2.5211274 8.54339019 -6.86915819 10.72104048 -12 13 C-12 13.66 -12 14.32 -12 15 C-13.65 15.33 -15.3 15.66 -17 16 C-14.1454011 12.17808442 -11.10685518 9.27484865 -7.375 6.3125 C-3.56498727 3.29292284 -3.56498727 3.29292284 0 0 Z " fill="#2C5389" transform="translate(301,248)"/>
<path d="M0 0 C2.84258606 1.31238168 5.09408245 2.76707176 7.453125 4.8203125 C8.071875 5.35527344 8.690625 5.89023437 9.328125 6.44140625 C9.96234375 6.99699219 10.5965625 7.55257813 11.25 8.125 C11.8996875 8.68832031 12.549375 9.25164062 13.21875 9.83203125 C14.815727 11.21764364 16.40830122 12.60832754 18 14 C17.01 14.33 16.02 14.66 15 15 C14.1646875 14.01 14.1646875 14.01 13.3125 13 C11.15937692 10.74507789 11.15937692 10.74507789 8.25 10.75 C7.13625 10.87375 7.13625 10.87375 6 11 C6.33 9.35 6.66 7.7 7 6 C5.35 5.67 3.7 5.34 2 5 C2 4.34 2 3.68 2 3 C1.34 3 0.68 3 0 3 C0 2.01 0 1.02 0 0 Z " fill="#34578E" transform="translate(148,251)"/>
<path d="M0 0 C6.48707154 1.6813917 12.7677635 3.53062327 19 6 C18.01 7.485 18.01 7.485 17 9 C11.00067626 7.1668733 5.55079437 4.92678249 0 2 C0 1.34 0 0.68 0 0 Z " fill="#32578D" transform="translate(271,75)"/>
<path d="M0 0 C3.0831351 1.19899698 6.06279492 2.47700477 9 4 C9 4.99 9 5.98 9 7 C9.5775 7.0825 10.155 7.165 10.75 7.25 C13.6539336 8.21797787 15.03740604 9.68694284 17 12 C17 12.66 17 13.32 17 14 C18.32 14.66 19.64 15.32 21 16 C20.67 16.66 20.34 17.32 20 18 C16.78500146 15.28296364 13.57093777 12.56484674 10.359375 9.84375 C8.43601999 8.21415155 6.50962322 6.58871625 4.578125 4.96875 C3.03394827 3.6670473 1.51336868 2.33739557 0 1 C0 0.67 0 0.34 0 0 Z " fill="#355888" transform="translate(183,270)"/>
<path d="M0 0 C0.66 0.33 1.32 0.66 2 1 C1.67 1.99 1.34 2.98 1 4 C0.01 4.33 -0.98 4.66 -2 5 C-2.66 5.66 -3.32 6.32 -4 7 C-4.99 6.67 -5.98 6.34 -7 6 C-4.69 4.02 -2.38 2.04 0 0 Z M-9 7 C-8.34 7.33 -7.68 7.66 -7 8 C-8.625 10.9375 -8.625 10.9375 -11 14 C-14.25 14.875 -14.25 14.875 -17 15 C-14.33333333 12.33333333 -11.66666667 9.66666667 -9 7 Z " fill="#E3F2F9" transform="translate(265,296)"/>
<path d="M0 0 C3.465 1.485 3.465 1.485 7 3 C6.505 3.61875 6.01 4.2375 5.5 4.875 C3.80777227 6.83880904 3.80777227 6.83880904 4 9 C-0.455 8.01 -0.455 8.01 -5 7 C-4.175 6.21625 -3.35 5.4325 -2.5 4.625 C0.22988506 2.36278736 0.22988506 2.36278736 0 0 Z " fill="#DFEEF3" transform="translate(318,232)"/>
<path d="M0 0 C0.66 0.33 1.32 0.66 2 1 C0.02 7.27 -1.96 13.54 -4 20 C-2.68 19.67 -1.36 19.34 0 19 C-0.33 19.66 -0.66 20.32 -1 21 C-2.32 21 -3.64 21 -5 21 C-5.07419487 17.14186658 -5.11112389 13.70374632 -4 10 C-3.87625 9.195625 -3.7525 8.39125 -3.625 7.5625 C-2.90818595 4.62356238 -1.6532158 2.51576317 0 0 Z " fill="#D8E8F1" transform="translate(109,223)"/>
<path d="M0 0 C-1 3 -1 3 -3.015625 4.546875 C-6.12936278 8.39614139 -5.6758618 12.43775708 -5.75 17.25 C-5.77964844 18.18585938 -5.80929688 19.12171875 -5.83984375 20.0859375 C-5.91039804 22.39071092 -5.96316252 24.69448168 -6 27 C-6.33 27 -6.66 27 -7 27 C-7 18.75 -7 10.5 -7 2 C-2 0 -2 0 0 0 Z " fill="#264B81" transform="translate(145,106)"/>
<path d="M0 0 C-4.75 3 -4.75 3 -7 3 C-7 3.99 -7 4.98 -7 6 C-4.36 5.67 -1.72 5.34 1 5 C-1.6860286 6.79068573 -3.6626589 7.66055791 -6.6875 8.625 C-7.49574219 8.88539062 -8.30398437 9.14578125 -9.13671875 9.4140625 C-9.75160156 9.60742188 -10.36648437 9.80078125 -11 10 C-10.62875 9.236875 -10.2575 8.47375 -9.875 7.6875 C-9.58625 6.800625 -9.2975 5.91375 -9 5 C-9.66 4.01 -10.32 3.02 -11 2 C-9.54494642 1.47007308 -8.08581873 0.9513211 -6.625 0.4375 C-5.81289062 0.14746094 -5.00078125 -0.14257812 -4.1640625 -0.44140625 C-2 -1 -2 -1 0 0 Z " fill="#DBEBF5" transform="translate(151,98)"/>
<path d="M0 0 C0.99 0.495 0.99 0.495 2 1 C1.01 1.495 1.01 1.495 0 2 C0 1.34 0 0.68 0 0 Z M-2 3 C-1.34 3.99 -0.68 4.98 0 6 C-0.99 6.33 -1.98 6.66 -3 7 C-3.33 8.65 -3.66 10.3 -4 12 C-5.65 11.67 -7.3 11.34 -9 11 C-7.08864614 7.46399535 -5.37357234 5.21027154 -2 3 Z " fill="#F7FDFC" transform="translate(301,240)"/>
<path d="M0 0 C0 0.66 0 1.32 0 2 C-1.32 1.67 -2.64 1.34 -4 1 C-4.226875 1.61875 -4.45375 2.2375 -4.6875 2.875 C-6.38454792 5.62260139 -8.02514071 5.93210179 -11 7 C-11.33 7.66 -11.66 8.32 -12 9 C-13.32 8.67 -14.64 8.34 -16 8 C-14.47392422 6.6488499 -12.92837144 5.31967839 -11.375 4 C-10.51648438 3.2575 -9.65796875 2.515 -8.7734375 1.75 C-5.55520973 -0.2806564 -3.73399034 -0.35040379 0 0 Z " fill="#315587" transform="translate(318,239)"/>
<path d="M0 0 C-2.3125 2.5 -2.3125 2.5 -5 5 C-5.99 5 -6.98 5 -8 5 C-8.99 5.33 -9.98 5.66 -11 6 C-11.33 5.67 -11.66 5.34 -12 5 C-13.66617115 4.95936168 -15.33388095 4.957279 -17 5 C-13.97546033 2.98364022 -11.36924652 1.96753498 -7.9375 0.8125 C-6.87402344 0.44769531 -5.81054688 0.08289063 -4.71484375 -0.29296875 C-2 -1 -2 -1 0 0 Z " fill="#DFEFF6" transform="translate(187,86)"/>
<path d="M0 0 C0.66 0.33 1.32 0.66 2 1 C1.67 2.65 1.34 4.3 1 6 C2.32 6 3.64 6 5 6 C5.33 5.34 5.66 4.68 6 4 C6.33 4.99 6.66 5.98 7 7 C2.545 8.485 2.545 8.485 -2 10 C-1.54177532 6.53058454 -1.10868317 3.32604951 0 0 Z " fill="#385B88" transform="translate(107,233)"/>
<path d="M0 0 C0.99 0 1.98 0 3 0 C3 0.66 3 1.32 3 2 C3.66 2 4.32 2 5 2 C5.33 1.34 5.66 0.68 6 0 C6 3.63 6 7.26 6 11 C5.34 11 4.68 11 4 11 C2.68 7.37 1.36 3.74 0 0 Z " fill="#EAF9FC" transform="translate(275,159)"/>
<path d="M0 0 C1.32 0.66 2.64 1.32 4 2 C4 2.99 4 3.98 4 5 C3.01 4.67 2.02 4.34 1 4 C0.67 11.59 0.34 19.18 0 27 C-0.33 27 -0.66 27 -1 27 C-1.02892385 22.87501462 -1.04677267 18.75005515 -1.0625 14.625 C-1.07087891 13.449375 -1.07925781 12.27375 -1.08789062 11.0625 C-1.09111328 9.94101562 -1.09433594 8.81953125 -1.09765625 7.6640625 C-1.10289307 6.62717285 -1.10812988 5.5902832 -1.11352539 4.52197266 C-1 2 -1 2 0 0 Z " fill="#254E84" transform="translate(229,44)"/>
<path d="M0 0 C1.485 0.99 1.485 0.99 3 2 C3 2.66 3 3.32 3 4 C5.31 4 7.62 4 10 4 C5.25 8.875 5.25 8.875 3 10 C0 3.375 0 3.375 0 0 Z " fill="#355487" transform="translate(278,246)"/>
<path d="M0 0 C5.65020618 0.60108576 10.66164461 2.07528683 16 4 C16 4.66 16 5.32 16 6 C13.70763814 5.52417032 11.41612791 5.04423615 9.125 4.5625 C7.84882813 4.29566406 6.57265625 4.02882813 5.2578125 3.75390625 C2 3 2 3 0 2 C0 1.34 0 0.68 0 0 Z " fill="#34548B" transform="translate(285,101)"/>
<path d="M0 0 C2.03819846 2.03819846 2.67841059 3.29417798 3.6875 5.9375 C3.95949219 6.62714844 4.23148437 7.31679687 4.51171875 8.02734375 C5 10 5 10 4 13 C3.01 13 2.02 13 1 13 C0.1276588 10.00519083 -0.10829766 7.36424089 -0.0625 4.25 C-0.05347656 3.45078125 -0.04445312 2.6515625 -0.03515625 1.828125 C-0.02355469 1.22484375 -0.01195312 0.6215625 0 0 Z " fill="#DEF2F9" transform="translate(255,189)"/>
<path d="M0 0 C-0.99 1.98 -1.98 3.96 -3 6 C-3.66 6 -4.32 6 -5 6 C-5 5.34 -5 4.68 -5 4 C-5.99 3.67 -6.98 3.34 -8 3 C-8.33 2.01 -8.66 1.02 -9 0 C-5.52176885 -1.15941038 -3.54104422 -0.70820884 0 0 Z " fill="#ECF5F8" transform="translate(143,102)"/>
<path d="M0 0 C4.75207471 -0.43200679 7.78210698 1.01510917 12 3 C12 3.66 12 4.32 12 5 C12.99 5 13.98 5 15 5 C14.67 5.66 14.34 6.32 14 7 C9.05 5.35 4.1 3.7 -1 2 C-0.67 1.34 -0.34 0.68 0 0 Z " fill="#2F5588" transform="translate(302,97)"/>
<path d="M0 0 C0.99 0.66 1.98 1.32 3 2 C-6.405 4.97 -6.405 4.97 -16 8 C-16 7.34 -16 6.68 -16 6 C-5.51782683 1.10356537 -5.51782683 1.10356537 0 0 Z " fill="#E5F5FC" transform="translate(189,68)"/>
<path d="M0 0 C1.423125 0.495 1.423125 0.495 2.875 1 C5.77062452 2.10159191 5.77062452 2.10159191 8 2 C8.103125 2.639375 8.20625 3.27875 8.3125 3.9375 C8.6528125 4.9584375 8.6528125 4.9584375 9 6 C9.99 6.33 10.98 6.66 12 7 C12 7.66 12 8.32 12 9 C12.66 9.33 13.32 9.66 14 10 C9.83878671 10 8.46553396 8.20445395 5.3125 5.5625 C4.31863281 4.73878906 3.32476562 3.91507812 2.30078125 3.06640625 C1.54152344 2.38449219 0.78226563 1.70257813 0 1 C0 0.67 0 0.34 0 0 Z " fill="#345A88" transform="translate(188,301)"/>
<path d="M0 0 C1.32 0.66 2.64 1.32 4 2 C3.48050781 2.23074219 2.96101563 2.46148437 2.42578125 2.69921875 C-2.27518597 4.8976378 -5.35011558 7.2487299 -9 11 C-11.3125 11.8125 -11.3125 11.8125 -13 12 C-8.87675353 7.74790208 -4.48717034 3.86364295 0 0 Z " fill="#E1F2FB" transform="translate(307,260)"/>
<path d="M0 0 C0.99 0 1.98 0 3 0 C8 5.34883721 8 5.34883721 8 8 C6.35 7.67 4.7 7.34 3 7 C2.896875 6.360625 2.79375 5.72125 2.6875 5.0625 C2.460625 4.381875 2.23375 3.70125 2 3 C1.01 2.67 0.02 2.34 -1 2 C-0.67 1.34 -0.34 0.68 0 0 Z " fill="#F7FDFB" transform="translate(150,247)"/>
<path d="M0 0 C0.99 0.33 1.98 0.66 3 1 C-0.19184343 3.64179275 -3.41581339 5.14549017 -7.25 6.6875 C-8.32765625 7.12449219 -9.4053125 7.56148437 -10.515625 8.01171875 C-11.33546875 8.33785156 -12.1553125 8.66398438 -13 9 C-12.73828125 7.109375 -12.73828125 7.109375 -12 5 C-10.29296875 3.953125 -10.29296875 3.953125 -8.1875 3.25 C-7.50042969 3.00765625 -6.81335938 2.7653125 -6.10546875 2.515625 C-4 2 -4 2 0 2 C0 1.34 0 0.68 0 0 Z " fill="#325688" transform="translate(128,230)"/>
<path d="M0 0 C1.77111844 0.47811177 3.54188483 0.9575278 5.3125 1.4375 C6.29863281 1.70433594 7.28476563 1.97117187 8.30078125 2.24609375 C10.21517526 2.78079425 12.11433615 3.37144538 14 4 C14.33 4.99 14.66 5.98 15 7 C13.26982492 6.54548816 11.54090123 6.08621143 9.8125 5.625 C8.84957031 5.36976562 7.88664063 5.11453125 6.89453125 4.8515625 C4.17789793 4.05233704 1.60862825 3.0968638 -1 2 C-0.67 1.34 -0.34 0.68 0 0 Z " fill="#395889" transform="translate(229,72)"/>
<path d="M0 0 C5.28 0.33 10.56 0.66 16 1 C15.67 1.99 15.34 2.98 15 4 C9.1977825 4.36263859 5.36000789 3.25684543 0 1 C0 0.67 0 0.34 0 0 Z " fill="#446491" transform="translate(126,258)"/>
<path d="M0 0 C1.80030122 2.70045182 2.93377066 5.06677881 4.125 8.0625 C4.47820312 8.94035156 4.83140625 9.81820312 5.1953125 10.72265625 C6 13 6 13 6 15 C3 14 3 14 2.05078125 12.36328125 C0.5119453 8.08873693 -0.34619582 4.61594432 0 0 Z " fill="#DEEFF8" transform="translate(274,238)"/>
<path d="M0 0 C4.29 1.32 8.58 2.64 13 4 C12.67 4.66 12.34 5.32 12 6 C7.02693484 5.50269348 3.36200187 4.44697666 -1 2 C-0.67 1.34 -0.34 0.68 0 0 Z " fill="#33588A" transform="translate(232,82)"/>
<path d="M0 0 C0 3.77910478 -0.99703962 4.46106101 -3.5 7.1875 C-4.1496875 7.90292969 -4.799375 8.61835938 -5.46875 9.35546875 C-5.9740625 9.89816406 -6.479375 10.44085938 -7 11 C-8.32 10.34 -9.64 9.68 -11 9 C-7.37 6.03 -3.74 3.06 0 0 Z " fill="#E1F0F8" transform="translate(293,272)"/>
<path d="M0 0 C0.99 0.33 1.98 0.66 3 1 C-0.3 3.97 -3.6 6.94 -7 10 C-7.66 9.67 -8.32 9.34 -9 9 C-9 8.34 -9 7.68 -9 7 C-8.38125 6.9175 -7.7625 6.835 -7.125 6.75 C-4.83330129 6.20673909 -4.83330129 6.20673909 -3.9375 4.0625 C-3.628125 3.381875 -3.31875 2.70125 -3 2 C-2.01 1.34 -1.02 0.68 0 0 Z " fill="#395D8D" transform="translate(304,260)"/>
<path d="M0 0 C0 0.66 0 1.32 0 2 C-3.33333333 3.33333333 -6.66666667 4.66666667 -10 6 C-10 4.68 -10 3.36 -10 2 C-6.5980513 -0.09350689 -3.94727588 -0.17942163 0 0 Z " fill="#2B5388" transform="translate(135,239)"/>
<path d="M0 0 C0.33 0.66 0.66 1.32 1 2 C1.66 2 2.32 2 3 2 C3.33 4.31 3.66 6.62 4 9 C4.66 9 5.32 9 6 9 C6.33 11.31 6.66 13.62 7 16 C6.34 16 5.68 16 5 16 C4.1605118 13.89828133 3.32860344 11.79353375 2.5 9.6875 C2.0359375 8.51574219 1.571875 7.34398437 1.09375 6.13671875 C0 3 0 3 0 0 Z " fill="#305788" transform="translate(257,191)"/>
<path d="M0 0 C1.00289063 0.28746094 2.00578125 0.57492188 3.0390625 0.87109375 C3.80992187 1.09925781 4.58078125 1.32742187 5.375 1.5625 C5.045 2.5525 4.715 3.5425 4.375 4.5625 C-1.565 3.0775 -1.565 3.0775 -7.625 1.5625 C-7.625 0.9025 -7.625 0.2425 -7.625 -0.4375 C-4.72405209 -1.88797396 -3.06527404 -0.89106803 0 0 Z " fill="#325688" transform="translate(323.625,92.4375)"/>
<path d="M0 0 C0.66 0 1.32 0 2 0 C4.26396123 2.53563658 5.40312566 4.65750371 6 8 C6.99 8 7.98 8 9 8 C9 8.99 9 9.98 9 11 C6.69 10.34 4.38 9.68 2 9 C1.34 6.03 0.68 3.06 0 0 Z " fill="#DFF2F8" transform="translate(248,59)"/>
<path d="M0 0 C0.66 0 1.32 0 2 0 C2 0.66 2 1.32 2 2 C2.66 2 3.32 2 4 2 C4 2.66 4 3.32 4 4 C5.32 4 6.64 4 8 4 C8 4.99 8 5.98 8 7 C8.66 7 9.32 7 10 7 C10.33 8.32 10.66 9.64 11 11 C9.72689688 10.06558465 8.456612 9.12732889 7.1875 8.1875 C6.47980469 7.66542969 5.77210938 7.14335937 5.04296875 6.60546875 C3.20038793 5.15747502 1.53635131 3.76898495 0 2 C0 1.34 0 0.68 0 0 Z " fill="#36588B" transform="translate(203,312)"/>
<path d="M0 0 C0.99 0.33 1.98 0.66 3 1 C-0.3 3.97 -3.6 6.94 -7 10 C-7.66 8.68 -8.32 7.36 -9 6 C-8.2575 5.7525 -7.515 5.505 -6.75 5.25 C-3.79875938 3.90852699 -2.15185026 2.39094474 0 0 Z " fill="#375889" transform="translate(245,310)"/>
<path d="M0 0 C0.99 0.33 1.98 0.66 3 1 C3 1.66 3 2.32 3 3 C3.66 3.33 4.32 3.66 5 4 C-0.73842251 4.20413361 -5.60539047 4.27141454 -11 2 C-7.18510326 0.53273202 -4.70988378 1.56663581 -1 3 C-0.67 2.01 -0.34 1.02 0 0 Z " fill="#2A548E" transform="translate(285,88)"/>
<path d="M0 0 C4.29 0.33 8.58 0.66 13 1 C13.33 2.32 13.66 3.64 14 5 C12.22739369 4.54857225 10.4569632 4.08859477 8.6875 3.625 C7.20830078 3.24214844 7.20830078 3.24214844 5.69921875 2.8515625 C3 2 3 2 0 0 Z " fill="#D8EBF6" transform="translate(290,81)"/>
<path d="M0 0 C-2.87078299 1.91385532 -5.33411656 2.96432952 -8.5625 4.125 C-9.53316406 4.47820312 -10.50382813 4.83140625 -11.50390625 5.1953125 C-14 6 -14 6 -16 6 C-16 5.34 -16 4.68 -16 4 C-10.45108785 1.18150494 -6.258654 -0.5326514 0 0 Z " fill="#335687" transform="translate(214,75)"/>
<path d="M0 0 C2.64 1.98 5.28 3.96 8 6 C5 7 5 7 3 7 C2.67 6.34 2.34 5.68 2 5 C1.01 5.33 0.02 5.66 -1 6 C-1 3 -1 3 0 0 Z " fill="#2A528C" transform="translate(192,288)"/>
<path d="M0 0 C0 0.66 0 1.32 0 2 C-0.66 2 -1.32 2 -2 2 C-0.60804085 4.7839183 1.15575779 4.97898997 4 6 C4 6.66 4 7.32 4 8 C2.5164999 7.57742724 1.03823576 7.13643678 -0.4375 6.6875 C-1.26121094 6.44386719 -2.08492188 6.20023438 -2.93359375 5.94921875 C-3.61550781 5.63597656 -4.29742187 5.32273438 -5 5 C-5.33 4.01 -5.66 3.02 -6 2 C-2.25 0 -2.25 0 0 0 Z " fill="#415F87" transform="translate(114,247)"/>
<path d="M0 0 C1.1055189 0.93590504 2.20935453 1.87379858 3.3125 2.8125 C3.92738281 3.33457031 4.54226562 3.85664063 5.17578125 4.39453125 C6.85424679 5.87172469 8.43882034 7.40039131 10 9 C8.68 9.33 7.36 9.66 6 10 C5.62875 9.1028125 5.62875 9.1028125 5.25 8.1875 C4.12019611 5.86706787 4.12019611 5.86706787 1.875 4.4375 C1.25625 3.963125 0.6375 3.48875 0 3 C0 2.01 0 1.02 0 0 Z " fill="#DFEDF8" transform="translate(148,267)"/>
<path d="M0 0 C2.1640625 0.2421875 2.1640625 0.2421875 4.625 0.875 C5.44226563 1.07867187 6.25953125 1.28234375 7.1015625 1.4921875 C8.04128906 1.74355469 8.04128906 1.74355469 9 2 C9 3.32 9 4.64 9 6 C5.27566618 4.7874262 1.62197194 3.49140021 -2 2 C-1.34 1.34 -0.68 0.68 0 0 Z " fill="#DFF0F7" transform="translate(247,85)"/>
<path d="M0 0 C0.33 1.32 0.66 2.64 1 4 C-3.75 8 -3.75 8 -6 8 C-5.65120368 4.74456771 -4.97866739 3.98126893 -2.4375 1.75 C-1.633125 1.1725 -0.82875 0.595 0 0 Z " fill="#E7F4F9" transform="translate(247,311)"/>
<path d="M0 0 C1.48754006 0.73325207 2.96486192 1.48726078 4.4375 2.25 C5.67306641 2.87648437 5.67306641 2.87648437 6.93359375 3.515625 C9 5 9 5 9.78515625 7.171875 C9.85605469 7.77515625 9.92695313 8.3784375 10 9 C4.125 6.25 4.125 6.25 3 4 C2.01 3.67 1.02 3.34 0 3 C0 2.01 0 1.02 0 0 Z " fill="#345588" transform="translate(165,234)"/>
<path d="M0 0 C1.8125 0.1875 1.8125 0.1875 4 1 C7 5.17857143 7 5.17857143 7 8 C4 7 4 7 2 4 C1.34 3.67 0.68 3.34 0 3 C0 2.01 0 1.02 0 0 Z " fill="#2E5585" transform="translate(329,213)"/>
<path d="M0 0 C1.73267972 2.59901958 2.48482049 4.13842116 3.25 7.0625 C3.44078125 7.75472656 3.6315625 8.44695312 3.828125 9.16015625 C3.88484375 9.76730469 3.9415625 10.37445313 4 11 C3.34 11.66 2.68 12.32 2 13 C1.46605821 11.5882217 0.94834896 10.17029756 0.4375 8.75 C0.14746094 7.96109375 -0.14257812 7.1721875 -0.44140625 6.359375 C-1.04522837 3.80896548 -0.8473932 2.44677771 0 0 Z " fill="#345A8C" transform="translate(271,148)"/>
<path d="M0 0 C6.75 1.75 6.75 1.75 9 4 C8.625 6.125 8.625 6.125 8 8 C7.4121875 7.0409375 7.4121875 7.0409375 6.8125 6.0625 C4.61527704 3.56221181 3.24208567 3.35049575 0 3 C0 2.01 0 1.02 0 0 Z " fill="#305284" transform="translate(246,87)"/>
<path d="M0 0 C0.66 0.99 1.32 1.98 2 3 C-0.64 5.31 -3.28 7.62 -6 10 C-6.33 8.68 -6.66 7.36 -7 6 C-5.5459375 5.62875 -5.5459375 5.62875 -4.0625 5.25 C-2.5465625 4.63125 -2.5465625 4.63125 -1 4 C-0.03122943 1.96756452 -0.03122943 1.96756452 0 0 Z " fill="#33568A" transform="translate(251,278)"/>
<path d="M0 0 C-1.40945366 0.56016748 -2.8280031 1.09748502 -4.25 1.625 C-5.43335938 2.07746094 -5.43335938 2.07746094 -6.640625 2.5390625 C-9.49917715 3.09752136 -10.58959839 2.53690745 -13 1 C-13 0.67 -13 0.34 -13 0 C-11.39679026 -0.19551338 -9.79237014 -0.38111983 -8.1875 -0.5625 C-7.29417969 -0.66691406 -6.40085937 -0.77132813 -5.48046875 -0.87890625 C-3 -1 -3 -1 0 0 Z " fill="#3A5A87" transform="translate(320,259)"/>
<path d="M0 0 C1.43931117 0.45261358 2.87638999 0.91232979 4.3125 1.375 C5.11300781 1.63023437 5.91351563 1.88546875 6.73828125 2.1484375 C9 3 9 3 12 5 C11.34 5.66 10.68 6.32 10 7 C9.01 6.67 8.02 6.34 7 6 C6.67 5.34 6.34 4.68 6 4 C4.02111039 3.27306096 2.02045442 2.60183749 0 2 C0 1.34 0 0.68 0 0 Z " fill="#E5F4FA" transform="translate(122,257)"/>
<path d="M0 0 C-1.50223584 4.20626034 -4.28550034 5.73900021 -8 8 C-5.73913043 0 -5.73913043 0 0 0 Z " fill="#355686" transform="translate(306,234)"/>
<path d="M0 0 C0.66 0 1.32 0 2 0 C2 0.99 2 1.98 2 3 C2.99 3.33 3.98 3.66 5 4 C5.33 6.64 5.66 9.28 6 12 C5.34 12 4.68 12 4 12 C2.68 8.04 1.36 4.08 0 0 Z " fill="#2F5687" transform="translate(263,208)"/>
<path d="M0 0 C1.90389849 2.85584773 2.69462177 4.9311762 3.625 8.1875 C4.01558594 9.53908203 4.01558594 9.53908203 4.4140625 10.91796875 C4.60742188 11.60503906 4.80078125 12.29210937 5 13 C3.046875 12.3515625 3.046875 12.3515625 1 11 C0.390625 8.3984375 0.390625 8.3984375 0.25 5.375 C0.19328125 4.37210938 0.1365625 3.36921875 0.078125 2.3359375 C0.05234375 1.56507813 0.0265625 0.79421875 0 0 Z " fill="#395C8A" transform="translate(275,160)"/>
<path d="M0 0 C5.30479934 0 6.18982627 1.5362057 10 5 C9.01 5.495 9.01 5.495 8 6 C6.0546875 5.22265625 6.0546875 5.22265625 3.875 4.0625 C3.15054688 3.68222656 2.42609375 3.30195312 1.6796875 2.91015625 C1.12539062 2.60980469 0.57109375 2.30945312 0 2 C0 1.34 0 0.68 0 0 Z " fill="#335A92" transform="translate(230,47)"/>
<path d="M0 0 C0.66 0.66 1.32 1.32 2 2 C-0.97 4.64 -3.94 7.28 -7 10 C-7.33 9.01 -7.66 8.02 -8 7 C-7.236875 6.401875 -6.47375 5.80375 -5.6875 5.1875 C-3.6516425 3.53040668 -1.8021721 1.89702326 0 0 Z " fill="#DAEAF8" transform="translate(250,289)"/>
<path d="M0 0 C2.97903734 2.97903734 4 5.80285329 4 10 C2.68 9.34 1.36 8.68 0 8 C0 5.36 0 2.72 0 0 Z " fill="#E3F1F9" transform="translate(268,223)"/>
<path d="M0 0 C0.66 0.33 1.32 0.66 2 1 C1.01 3.97 0.02 6.94 -1 10 C-1.99 9.67 -2.98 9.34 -4 9 C-3.35455571 5.51460083 -1.89865603 2.97180943 0 0 Z " fill="#E2F0F8" transform="translate(109,223)"/>
<path d="M0 0 C-2.85478326 1.90318884 -4.41941308 2.4619099 -7.6875 3.125 C-8.49574219 3.29257813 -9.30398437 3.46015625 -10.13671875 3.6328125 C-10.75160156 3.75398438 -11.36648437 3.87515625 -12 4 C-8.41084094 -0.78554541 -5.58334594 -0.37222306 0 0 Z " fill="#E0EEF7" transform="translate(172,76)"/>
<path d="M0 0 C3.81684226 1.55500981 6.19195732 4.03595495 9 7 C4.71193127 6.52354792 2.73352513 5.34097516 0 2 C0 1.34 0 0.68 0 0 Z " fill="#315386" transform="translate(137,242)"/>
<path d="M0 0 C-0.99 1.485 -0.99 1.485 -2 3 C-3.65 2.67 -5.3 2.34 -7 2 C-7 1.34 -7 0.68 -7 0 C-7.99 -0.33 -8.98 -0.66 -10 -1 C-6.06329512 -2.31223496 -3.87511856 -1.24296256 0 0 Z " fill="#2F5691" transform="translate(267,73)"/>
<path d="M0 0 C1.32 0.66 2.64 1.32 4 2 C3.67 2.99 3.34 3.98 3 5 C1.68 5 0.36 5 -1 5 C-1.33 4.01 -1.66 3.02 -2 2 C-1.34 1.34 -0.68 0.68 0 0 Z " fill="#F7FDFC" transform="translate(188,278)"/>
<path d="M0 0 C1.32 0.33 2.64 0.66 4 1 C1.36 2.98 -1.28 4.96 -4 7 C-2.73033708 1.92134831 -2.73033708 1.92134831 0 0 Z " fill="#DEEEF7" transform="translate(267,274)"/>
<path d="M0 0 C1.33897583 0.95043374 2.67105427 1.91059147 4 2.875 C5.11375 3.67550781 5.11375 3.67550781 6.25 4.4921875 C6.8275 4.98976563 7.405 5.48734375 8 6 C8 6.66 8 7.32 8 8 C4.63820226 6.55922954 2.40843732 4.75249979 0 2 C0 1.34 0 0.68 0 0 Z " fill="#E8F6FC" transform="translate(199,311)"/>
<path d="M0 0 C3.45925163 1.2491742 6.14693203 2.67527795 9 5 C8.67 5.99 8.34 6.98 8 8 C6.66372225 6.85760183 5.33104612 5.71098945 4 4.5625 C3.2575 3.92441406 2.515 3.28632813 1.75 2.62890625 C1.1725 2.09136719 0.595 1.55382812 0 1 C0 0.67 0 0.34 0 0 Z " fill="#3F5E8C" transform="translate(204,288)"/>
<path d="M0 0 C3.68754757 0.49831724 5.60490662 1.10067643 8 4 C7.67 4.99 7.34 5.98 7 7 C5.83040013 6.02433888 4.66438823 5.044375 3.5 4.0625 C2.8503125 3.51722656 2.200625 2.97195313 1.53125 2.41015625 C1.0259375 1.94480469 0.520625 1.47945313 0 1 C0 0.67 0 0.34 0 0 Z " fill="#D7EAF5" transform="translate(194,289)"/>
<path d="M0 0 C0.66 0.66 1.32 1.32 2 2 C-0.3125 4.0625 -0.3125 4.0625 -3 6 C-3.99 5.67 -4.98 5.34 -6 5 C-4.02 3.35 -2.04 1.7 0 0 Z " fill="#E4F3FA" transform="translate(246,286)"/>
<path d="M0 0 C0.66 0.33 1.32 0.66 2 1 C2.625 4.0625 2.625 4.0625 3 7 C0.69 6.01 -1.62 5.02 -4 4 C-2.68 3.67 -1.36 3.34 0 3 C0 2.01 0 1.02 0 0 Z " fill="#3E587D" transform="translate(340,237)"/>
<path d="M0 0 C0.66 0 1.32 0 2 0 C3.61949011 2.57213134 4.04408751 3.67669159 3.625 6.75 C3.41875 7.4925 3.2125 8.235 3 9 C0.87491756 5.81237635 0.4979837 3.73487777 0 0 Z " fill="#E0F1F9" transform="translate(339,229)"/>
<path d="M0 0 C0.99 0 1.98 0 3 0 C3.33 1.32 3.66 2.64 4 4 C3.01 4.33 2.02 4.66 1 5 C1 4.34 1 3.68 1 3 C0.01 2.67 -0.98 2.34 -2 2 C-1.34 1.34 -0.68 0.68 0 0 Z " fill="#FBFDFC" transform="translate(175,268)"/>
<path d="M0 0 C0.66 0.33 1.32 0.66 2 1 C2.33 1.99 2.66 2.98 3 4 C3.66 4.33 4.32 4.66 5 5 C5 5.66 5 6.32 5 7 C1.63408134 5.55746343 -0.51047079 3.66735273 -3 1 C-2.01 0.67 -1.02 0.34 0 0 Z " fill="#E1EFF9" transform="translate(171,266)"/>
<path d="M0 0 C2.16874252 0.50603992 3.99967627 0.99983813 6 2 C6 2.99 6 3.98 6 5 C4.125 4.75 4.125 4.75 2 4 C0.75 1.9375 0.75 1.9375 0 0 Z " fill="#2A4E8E" transform="translate(169,257)"/>
<path d="M0 0 C0.66 0.33 1.32 0.66 2 1 C0.60203108 3.79593783 -1.13474989 3.95173777 -4 5 C-4.99 5.495 -4.99 5.495 -6 6 C-6.66 5.34 -7.32 4.68 -8 4 C-6.71349294 3.30289269 -5.42059335 2.61757124 -4.125 1.9375 C-3.40570313 1.55464844 -2.68640625 1.17179688 -1.9453125 0.77734375 C-1.30335937 0.52082031 -0.66140625 0.26429688 0 0 Z " fill="#D7E6F2" transform="translate(124,234)"/>
<path d="M0 0 C0.33 0.99 0.66 1.98 1 3 C0.34 3.66 -0.32 4.32 -1 5 C-1.40047444 7.32275177 -1.7397104 9.65739357 -2 12 C-2.33 12 -2.66 12 -3 12 C-3.33 9.36 -3.66 6.72 -4 4 C-3.01 3.67 -2.02 3.34 -1 3 C-0.67 2.01 -0.34 1.02 0 0 Z " fill="#BFD6E8" transform="translate(200,56)"/>
<path d="M0 0 C0 3.51716303 -0.82445585 4.37121748 -3 7 C-4.32 6.67 -5.64 6.34 -7 6 C-4.69 4.02 -2.38 2.04 0 0 Z " fill="#DEF0FA" transform="translate(236,320)"/>
<path d="M0 0 C2.97 1.98 2.97 1.98 6 4 C5.67 4.66 5.34 5.32 5 6 C3.68 5.34 2.36 4.68 1 4 C1 3.34 1 2.68 1 2 C0.34 1.67 -0.32 1.34 -1 1 C-0.67 0.67 -0.34 0.34 0 0 Z " fill="#E3F5F9" transform="translate(193,306)"/>
<path d="M0 0 C0.33 0 0.66 0 1 0 C1 2.64 1 5.28 1 8 C1.66 8 2.32 8 3 8 C2.34 9.32 1.68 10.64 1 12 C0.67 12 0.34 12 0 12 C0 8.04 0 4.08 0 0 Z " fill="#375379" transform="translate(227,290)"/>
<path d="M0 0 C0.66 0.33 1.32 0.66 2 1 C1.375 2.9375 1.375 2.9375 0 5 C-3.125 5.75 -3.125 5.75 -6 6 C-4 4 -2 2 0 0 Z " fill="#38598F" transform="translate(268,276)"/>
<path d="M0 0 C1.70884005 1.62339805 3.37446717 3.29319053 5 5 C5 5.66 5 6.32 5 7 C4.34 7 3.68 7 3 7 C3 6.34 3 5.68 3 5 C2.01 4.67 1.02 4.34 0 4 C0 2.68 0 1.36 0 0 Z " fill="#2C5190" transform="translate(201,258)"/>
<path d="M0 0 C0.99 0.33 1.98 0.66 3 1 C-0.32307692 4.93846154 -0.32307692 4.93846154 -3.75 5.25 C-4.4925 5.1675 -5.235 5.085 -6 5 C-2.25 2 -2.25 2 0 2 C0 1.34 0 0.68 0 0 Z " fill="#D2E1EC" transform="translate(339,249)"/>
<path d="M0 0 C4.75 0.875 4.75 0.875 7 2 C6.67 2.99 6.34 3.98 6 5 C4.02 4.01 2.04 3.02 0 2 C0 1.34 0 0.68 0 0 Z " fill="#35568B" transform="translate(321,232)"/>
<path d="M0 0 C-0.33 0.99 -0.66 1.98 -1 3 C-3.5625 4.1875 -3.5625 4.1875 -6 5 C-6.33 4.01 -6.66 3.02 -7 2 C-2.25 0 -2.25 0 0 0 Z " fill="#3C5C90" transform="translate(145,106)"/>
<path d="M0 0 C0 0.66 0 1.32 0 2 C-1.98 2.33 -3.96 2.66 -6 3 C-6 2.01 -6 1.02 -6 0 C-2.25 -1.125 -2.25 -1.125 0 0 Z " fill="#F9FDFA" transform="translate(150,101)"/>
</svg>
